<svg xmlns="http://www.w3.org/2000/svg" viewBox="0 0 57 60"><path d="M28.5 2.27C13.185 2.27.769 14.685.769 30S13.185 57.73 28.5 57.73 56.231 45.315 56.231 30 43.815 2.27 28.5 2.27zm-.418 5.506a3.589 3.589 0 0 1 3.595 3.579 3.592 3.592 0 0 1-3.595 3.595 3.59 3.59 0 0 1-3.579-3.595 3.579 3.579 0 0 1 3.579-3.579zm15.666 11.959l-10.477 1.372.005 10.878 5.078 17.579c.267 1.112-.373 2.219-1.435 2.495a1.943 1.943 0 0 1-2.406-1.439l-5.201-16.002h-1.6l-4.785 16.334a1.94 1.94 0 0 1-2.571 1.14c-1.019-.409-1.638-1.61-1.238-2.678l4.396-17.252V21.107l-9.655-1.361c-.992-.083-1.664-.985-1.584-2.014.075-1.035.976-1.804 1.963-1.721l11.73 1.046h5.142l12.488-1.068c.992-.039 1.835.758 1.867 1.798.043 1.024-.725 1.903-1.717 1.948z" fill="#a3d4ff" stroke="#2a5082" stroke-miterlimit="10"/></svg>