<svg id="Layer_1" xmlns="http://www.w3.org/2000/svg" viewBox="0 0 57 60"><style>.st1,.st2,.st3{fill:none;stroke:#2a5082;stroke-width:2;stroke-miterlimit:10}.st2,.st3{fill:#a3d4ff}.st3{fill:#e9eaeb}</style><ellipse transform="rotate(-22.5 25.707 36.514)" cx="25.708" cy="36.515" rx="21.872" ry="21.872" fill="#e9eaeb"/><path class="st1" d="M33.332 17.434c.756 1.223 1.217 2.672 1.217 4.163v9.8"/><path class="st2" d="M21.519 9.99a8.376 8.376 0 1 1 16.752 0 8.376 8.376 0 0 1-16.752 0z"/><path class="st3" d="M44.788 36.98l-4.654-3.723h-2.792l-2.792-1.861h-1.862l-1.861-.931-2.792 1.862h-1.862l-2.792.93-.931 3.723v4.654h22.338z"/><path d="M45.718 36.05l-5.765 3.692a2.785 2.785 0 0 0-2.611-1.83h-5.584c-1.28 0-3.226-1.861-4.768-1.861h-5.47c-2.249 0-4.452 1.737-5.584 2.792-1.75 1.75-5.085 5.178-5.584 5.584 2.783 2.407 8.028 7.615 9.307 8.743 1.73-1.73 2.407-3.159 3.836-3.159h13.848c1.297-.724 9.307-7.446 9.307-7.446s5.437-5.856 6.515-8.376c-.678-.912-4.887-2.269-7.447 1.861z" fill="#fff"/><path class="st1" d="M28.035 43.495h9.307a2.792 2.792 0 1 0 0-5.584h-5.584c-1.28 0-3.226-1.861-4.768-1.861h-5.47c-2.249 0-4.452 1.737-5.584 2.792-1.75 1.75-5.085 5.178-5.584 5.584 2.783 2.407 8.028 7.615 9.307 8.743 1.73-1.73 2.407-3.159 3.836-3.159h13.848c1.297-.724 9.307-7.446 9.307-7.446s5.437-5.856 6.515-8.376c-.677-.912-4.886-2.269-7.446 1.861l-5.813 3.723"/><path transform="rotate(-45.001 14.073 49.08)" class="st3" d="M10.125 39.866h7.897v18.427h-7.897z"/><path class="st1" d="M9.42 44.426l1.862 1.862"/><path class="st2" d="M42.926 25.812h-4.654a6.515 6.515 0 0 1 6.515-6.515h4.654a6.515 6.515 0 0 1-6.515 6.515z"/><path d="M28.965 26.742h2.792a4.654 4.654 0 0 0-4.654-4.654h-2.792a4.654 4.654 0 0 0 4.654 4.654z" fill="#fff" stroke="#2a5082" stroke-width="2" stroke-miterlimit="10"/><path class="st1" d="M27.104 12.782h3.723a.931.931 0 0 0 .931-.931v-.931a.931.931 0 0 0-.931-.931h-1.861a.931.931 0 0 1-.931-.931v-.93c0-.514.417-.931.931-.931h3.723M29.896 7.197V4.405M29.896 12.782v2.792"/></svg>