<?xml version="1.0" encoding="utf-8"?>
<!-- Generator: Adobe Illustrator 23.0.3, SVG Export Plug-In . SVG Version: 6.00 Build 0)  -->
<svg version="1.1" id="Layer_1" xmlns="http://www.w3.org/2000/svg" xmlns:xlink="http://www.w3.org/1999/xlink" x="0px" y="0px"
	 viewBox="0 0 200 178" style="enable-background:new 0 0 200 178;" xml:space="preserve">
<style type="text/css">
	.st0{fill:url(#SVGID_1_);}
	.st1{fill:url(#SVGID_2_);}
	.st2{fill:url(#SVGID_3_);}
	.st3{fill:url(#SVGID_4_);}
	.st4{fill:url(#SVGID_5_);}
	.st5{fill:url(#SVGID_6_);}
	.st6{fill:url(#SVGID_7_);}
	.st7{fill:url(#SVGID_8_);}
	.st8{fill:url(#SVGID_9_);}
	.st9{fill:url(#SVGID_10_);}
	.st10{fill:url(#SVGID_11_);}
	.st11{fill:url(#SVGID_12_);}
	.st12{fill:url(#SVGID_13_);}
	.st13{fill:url(#SVGID_14_);}
	.st14{fill:url(#SVGID_15_);}
	.st15{fill:url(#SVGID_16_);}
	.st16{fill:url(#SVGID_17_);}
	.st17{fill:url(#SVGID_18_);}
	.st18{fill:url(#SVGID_19_);}
	.st19{fill:url(#SVGID_20_);}
	.st20{fill:url(#SVGID_21_);}
	.st21{fill:#FFFFFF;}
	.st22{fill:#D0EBFF;}
	.st23{fill:#A7A9AC;}
	.st24{fill:#89CCFF;}
	.st25{fill:#A1D6FF;}
	.st26{fill:url(#SVGID_22_);}
	.st27{fill:url(#SVGID_23_);}
	.st28{fill:url(#SVGID_24_);}
	.st29{fill:url(#SVGID_25_);}
	.st30{fill:url(#SVGID_26_);}
	.st31{fill:url(#SVGID_27_);}
	.st32{fill:url(#SVGID_28_);}
	.st33{fill:url(#SVGID_29_);}
	.st34{fill:#D1D3D4;}
	.st35{fill:#B4DEFF;}
	.st36{fill:url(#SVGID_30_);}
	.st37{fill:url(#SVGID_31_);}
	.st38{fill:#BCBEC0;}
	.st39{fill:url(#SVGID_32_);}
	.st40{fill:url(#SVGID_33_);}
	.st41{fill:url(#SVGID_34_);}
	.st42{fill:url(#SVGID_35_);}
	.st43{fill:url(#SVGID_36_);}
	.st44{fill:url(#SVGID_37_);}
	.st45{fill:url(#SVGID_38_);}
	.st46{fill:url(#SVGID_39_);}
	.st47{fill:url(#SVGID_40_);}
	.st48{fill:url(#SVGID_41_);}
	.st49{fill:url(#SVGID_42_);}
	.st50{fill:url(#SVGID_43_);}
</style>
<g>
	
		<linearGradient id="SVGID_1_" gradientUnits="userSpaceOnUse" x1="150.5893" y1="754.8468" x2="343.5296" y2="754.8468" gradientTransform="matrix(0.9929 0.1193 -0.1193 0.9929 -54.7331 -692.1079)">
		<stop  offset="0" style="stop-color:#482D9D"/>
		<stop  offset="0.2125" style="stop-color:#3E51B3"/>
		<stop  offset="0.7538" style="stop-color:#26A7EA"/>
		<stop  offset="1" style="stop-color:#1DC9FF"/>
	</linearGradient>
	<path class="st0" d="M10.273,86.152c0.015-0.021,0.031-0.042,0.046-0.063c6.342-8.631,16.548-16.075,15.98-27.639
		c-0.374-7.618-3.187-14.577-1.666-22.271C33.247-7.391,93.827-1.324,125.466,6.38c17.889,4.356,37.228,13.65,37.452,34.827
		c0.163,15.345-7.213,29.039,6.34,41.975c6.068,5.791,14.517,9.203,19.28,16.265c4.755,7.049,6.136,16.176,4.632,24.457
		c-2.404,13.234-11.263,26.76-23.355,32.92c-12.892,6.568-27.976,5.007-41.795,3.103c-21.796-3.003-40.448,0.298-61.866,3.459
		c-16.274,2.402-33.342,3.266-47.385-6.86C-3.549,140.432-5.422,107.583,10.273,86.152z"/>
	
		<linearGradient id="SVGID_2_" gradientUnits="userSpaceOnUse" x1="171.7758" y1="824.5855" x2="339.266" y2="716.2097" gradientTransform="matrix(0.9929 0.1193 -0.1193 0.9929 -54.7331 -692.1079)">
		<stop  offset="0" style="stop-color:#482D9D"/>
		<stop  offset="0.2125" style="stop-color:#3E51B3"/>
		<stop  offset="0.7538" style="stop-color:#26A7EA"/>
		<stop  offset="1" style="stop-color:#1DC9FF"/>
	</linearGradient>
	<circle class="st1" cx="183.08" cy="66.14" r="16.919"/>
	
		<linearGradient id="SVGID_3_" gradientUnits="userSpaceOnUse" x1="128.6686" y1="757.9635" x2="296.159" y2="649.5876" gradientTransform="matrix(0.9929 0.1193 -0.1193 0.9929 -54.7331 -692.1079)">
		<stop  offset="0" style="stop-color:#482D9D"/>
		<stop  offset="0.2125" style="stop-color:#3E51B3"/>
		<stop  offset="0.7538" style="stop-color:#26A7EA"/>
		<stop  offset="1" style="stop-color:#1DC9FF"/>
	</linearGradient>
	<circle class="st2" cx="13.309" cy="60.809" r="10.075"/>
	
		<linearGradient id="SVGID_4_" gradientUnits="userSpaceOnUse" x1="154.2881" y1="797.5576" x2="321.7786" y2="689.1815" gradientTransform="matrix(0.9929 0.1193 -0.1193 0.9929 -54.7331 -692.1079)">
		<stop  offset="0" style="stop-color:#482D9D"/>
		<stop  offset="0.2125" style="stop-color:#3E51B3"/>
		<stop  offset="0.7538" style="stop-color:#26A7EA"/>
		<stop  offset="1" style="stop-color:#1DC9FF"/>
	</linearGradient>
	<circle class="st3" cx="177.418" cy="33.073" r="6.028"/>
	
		<linearGradient id="SVGID_5_" gradientUnits="userSpaceOnUse" x1="112.4206" y1="135.3481" x2="279.9261" y2="26.9624" gradientTransform="matrix(0.9999 -0.0112 0.0112 0.9999 -67.0661 72.998)">
		<stop  offset="0" style="stop-color:#482D9D"/>
		<stop  offset="0.2125" style="stop-color:#3E51B3"/>
		<stop  offset="0.7538" style="stop-color:#26A7EA"/>
		<stop  offset="1" style="stop-color:#1DC9FF"/>
	</linearGradient>
	<path class="st4" d="M121.209,168.709c0.051,4.511-7.419,8.253-16.683,8.357c-9.264,0.104-16.816-3.469-16.867-7.98
		c-0.051-4.512,7.419-8.253,16.683-8.357S121.159,164.197,121.209,168.709z"/>
	<g>
		<g>
			<linearGradient id="SVGID_6_" gradientUnits="userSpaceOnUse" x1="120.9359" y1="8.6239" x2="129.1926" y2="8.6239">
				<stop  offset="0" style="stop-color:#482D9D"/>
				<stop  offset="0.2125" style="stop-color:#3E51B3"/>
				<stop  offset="0.7538" style="stop-color:#26A7EA"/>
				<stop  offset="1" style="stop-color:#1DC9FF"/>
			</linearGradient>
			<path class="st5" d="M122.385,11.865c0.119-0.036,0.238-0.073,0.356-0.112c2.496-0.821,4.814-2.362,6.451-4.395
				c-1.245-0.351-2.489-0.677-3.726-0.978c-1.383-0.337-2.822-0.67-4.309-0.997C120.583,7.382,121.175,9.882,122.385,11.865z"/>
			<linearGradient id="SVGID_7_" gradientUnits="userSpaceOnUse" x1="122.3855" y1="33.3766" x2="162.9072" y2="33.3766">
				<stop  offset="0" style="stop-color:#482D9D"/>
				<stop  offset="0.2125" style="stop-color:#3E51B3"/>
				<stop  offset="0.7538" style="stop-color:#26A7EA"/>
				<stop  offset="1" style="stop-color:#1DC9FF"/>
			</linearGradient>
			<path class="st6" d="M122.741,11.753c-0.118,0.039-0.237,0.076-0.356,0.112c0.269,0.44,0.567,0.855,0.89,1.232
				c2.499,2.917,6.071,4.978,7.786,8.414c2.111,4.23,0.836,9.266,0.922,13.992c0.158,8.629,5.377,16.9,12.936,21.066
				c2.555,1.408,5.342,2.345,8.213,2.826c-0.318-1.194-0.678-2.385-0.868-3.602c-1.05-6.715,4.081-13.66,10.643-15.047
				c-0.464-19.397-17.099-28.704-33.715-33.389C127.555,9.39,125.237,10.931,122.741,11.753z"/>
			<linearGradient id="SVGID_8_" gradientUnits="userSpaceOnUse" x1="49.3229" y1="11.9081" x2="122.3855" y2="11.9081">
				<stop  offset="0" style="stop-color:#482D9D"/>
				<stop  offset="0.2125" style="stop-color:#3E51B3"/>
				<stop  offset="0.7538" style="stop-color:#26A7EA"/>
				<stop  offset="1" style="stop-color:#1DC9FF"/>
			</linearGradient>
			<path class="st7" d="M51.205,15.393c-0.248,1.303-0.706,2.527-1.28,3.708c1.819,1.136,3.762,2.058,5.825,2.696
				c9.713,3.006,20.22-0.68,29.164-5.516c5.799-3.136,11.875-6.904,18.432-6.214c2.295,0.242,4.49,1.029,6.724,1.607
				c4.026,1.042,8.345,1.396,12.317,0.191c-1.211-1.983-1.803-4.483-1.229-6.482C100.539,0.856,70.59-2.299,49.323,6.608
				C51.02,9.17,51.781,12.368,51.205,15.393z"/>
			<linearGradient id="SVGID_9_" gradientUnits="userSpaceOnUse" x1="182.4562" y1="103.083" x2="192.0247" y2="103.083">
				<stop  offset="0" style="stop-color:#482D9D"/>
				<stop  offset="0.2125" style="stop-color:#3E51B3"/>
				<stop  offset="0.7538" style="stop-color:#26A7EA"/>
				<stop  offset="1" style="stop-color:#1DC9FF"/>
			</linearGradient>
			<path class="st8" d="M184.167,110.575c0.011,0.225,0.012,0.451,0.009,0.677c2.857-1.094,5.528-2.68,7.849-4.671
				c-0.842-2.522-1.999-4.93-3.486-7.134c-1.142-1.693-2.498-3.175-3.98-4.532c-1.234,1.575-2.011,3.507-2.094,5.509
				C182.322,103.862,184.005,107.137,184.167,110.575z"/>
			<linearGradient id="SVGID_10_" gradientUnits="userSpaceOnUse" x1="41.1038" y1="12.8547" x2="51.3954" y2="12.8547">
				<stop  offset="0" style="stop-color:#482D9D"/>
				<stop  offset="0.2125" style="stop-color:#3E51B3"/>
				<stop  offset="0.7538" style="stop-color:#26A7EA"/>
				<stop  offset="1" style="stop-color:#1DC9FF"/>
			</linearGradient>
			<path class="st9" d="M49.925,19.101c0.575-1.181,1.032-2.406,1.28-3.708c0.577-3.026-0.185-6.223-1.882-8.785
				c-2.919,1.222-5.674,2.672-8.219,4.377C43.602,14.145,46.55,16.994,49.925,19.101z"/>
			<linearGradient id="SVGID_11_" gradientUnits="userSpaceOnUse" x1="148.7343" y1="86.1844" x2="184.5587" y2="86.1844">
				<stop  offset="0" style="stop-color:#482D9D"/>
				<stop  offset="0.2125" style="stop-color:#3E51B3"/>
				<stop  offset="0.7538" style="stop-color:#26A7EA"/>
				<stop  offset="1" style="stop-color:#1DC9FF"/>
			</linearGradient>
			<path class="st10" d="M153.132,59.395c0.318,1.196,0.595,2.395,0.618,3.629c0.055,2.967-1.352,5.731-2.44,8.492
				c-3.974,10.09-3.601,22.321,2.883,31.014c4.892,6.558,13.031,10.565,21.212,10.44c2.998-0.046,5.973-0.647,8.77-1.719
				c0.003-0.226,0.002-0.451-0.009-0.677c-0.162-3.438-1.845-6.713-1.702-10.152c0.083-2.002,0.86-3.934,2.094-5.509
				c-4.7-4.301-10.687-7.33-15.3-11.733c-7.918-7.558-8.692-15.374-8-23.628C158.558,59.894,155.809,59.844,153.132,59.395z"/>
			<linearGradient id="SVGID_12_" gradientUnits="userSpaceOnUse" x1="152.1271" y1="50.261" x2="162.9213" y2="50.261">
				<stop  offset="0" style="stop-color:#482D9D"/>
				<stop  offset="0.2125" style="stop-color:#3E51B3"/>
				<stop  offset="0.7538" style="stop-color:#26A7EA"/>
				<stop  offset="1" style="stop-color:#1DC9FF"/>
			</linearGradient>
			<path class="st11" d="M152.264,55.793c0.19,1.217,0.55,2.408,0.868,3.602c2.677,0.448,5.426,0.498,8.127,0.159
				c0.493-5.873,1.727-11.967,1.66-18.347c-0.002-0.155-0.008-0.307-0.011-0.46C156.345,42.133,151.214,49.078,152.264,55.793z"/>
			<linearGradient id="SVGID_13_" gradientUnits="userSpaceOnUse" x1="0.0014" y1="119.4639" x2="33.9744" y2="119.4639">
				<stop  offset="0" style="stop-color:#482D9D"/>
				<stop  offset="0.2125" style="stop-color:#3E51B3"/>
				<stop  offset="0.7538" style="stop-color:#26A7EA"/>
				<stop  offset="1" style="stop-color:#1DC9FF"/>
			</linearGradient>
			<path class="st12" d="M29.094,149.389c0.92,0.371,1.668,1.006,2.366,1.719c0.471-1.053,0.889-2.132,1.245-3.24
				c2.8-8.709,1.046-19.308-6.004-25.137c-3.121-2.581-7.171-4.228-9.331-7.654c-2.86-4.538-1.395-10.454,0.322-15.535
				c1.028-3.044,2.11-6.297,2.332-9.465c-0.5,0.005-1-0.006-1.501-0.036c-3.159-0.191-6.323-1.173-8.95-2.907
				c-13.57,19.482-13.031,47.766,3.671,64.662c3.668-1.123,7.416-1.983,11.207-2.568C26,148.988,27.639,148.804,29.094,149.389z"/>
			<linearGradient id="SVGID_14_" gradientUnits="userSpaceOnUse" x1="25.4334" y1="157.1819" x2="86.5816" y2="157.1819">
				<stop  offset="0" style="stop-color:#482D9D"/>
				<stop  offset="0.2125" style="stop-color:#3E51B3"/>
				<stop  offset="0.7538" style="stop-color:#26A7EA"/>
				<stop  offset="1" style="stop-color:#1DC9FF"/>
			</linearGradient>
			<path class="st13" d="M75.037,150.118c-7.31-1.89-15.039,0.351-21.991,3.296c-3.751,1.588-7.598,3.425-11.667,3.24
				c-2.945-0.133-5.827-1.38-7.94-3.436c-0.684-0.666-1.308-1.424-1.979-2.11c-1.515,3.384-3.594,6.49-6.026,9.337
				c12.598,5.906,26.944,4.975,40.72,2.942c7.038-1.039,13.778-2.093,20.428-2.933C84.906,155.559,80.221,151.459,75.037,150.118z"
				/>
			<linearGradient id="SVGID_15_" gradientUnits="userSpaceOnUse" x1="158.3636" y1="133.4379" x2="193.75" y2="133.4379">
				<stop  offset="0" style="stop-color:#482D9D"/>
				<stop  offset="0.2125" style="stop-color:#3E51B3"/>
				<stop  offset="0.7538" style="stop-color:#26A7EA"/>
				<stop  offset="1" style="stop-color:#1DC9FF"/>
			</linearGradient>
			<path class="st14" d="M184.176,111.252c-0.035,2.638-0.991,5.258-2.68,7.286c-2.431,2.919-6.094,4.446-9.287,6.506
				c-7.067,4.558-12.076,12.185-13.452,20.481c-0.817,4.927-0.345,10.045,1.266,14.771c3.361-0.748,6.642-1.866,9.792-3.471
				c12.092-6.16,20.951-19.687,23.355-32.92c1.034-5.691,0.705-11.782-1.146-17.323
				C189.704,108.571,187.033,110.157,184.176,111.252z"/>
			<linearGradient id="SVGID_16_" gradientUnits="userSpaceOnUse" x1="9.573" y1="84.8759" x2="20.0648" y2="84.8759">
				<stop  offset="0" style="stop-color:#482D9D"/>
				<stop  offset="0.2125" style="stop-color:#3E51B3"/>
				<stop  offset="0.7538" style="stop-color:#26A7EA"/>
				<stop  offset="1" style="stop-color:#1DC9FF"/>
			</linearGradient>
			<path class="st15" d="M20.024,90.076c0.148-2.121-0.088-4.203-0.987-6.158c-0.779-1.693-1.967-3.083-3.394-4.244
				c-1.864,2.12-3.718,4.229-5.323,6.415c-0.015,0.021-0.031,0.042-0.046,0.063c-0.238,0.324-0.471,0.651-0.7,0.981
				c2.627,1.735,5.791,2.717,8.95,2.907C19.024,90.07,19.524,90.081,20.024,90.076z"/>
			<linearGradient id="SVGID_17_" gradientUnits="userSpaceOnUse" x1="13.2436" y1="154.7217" x2="31.4595" y2="154.7217">
				<stop  offset="0" style="stop-color:#482D9D"/>
				<stop  offset="0.2125" style="stop-color:#3E51B3"/>
				<stop  offset="0.7538" style="stop-color:#26A7EA"/>
				<stop  offset="1" style="stop-color:#1DC9FF"/>
			</linearGradient>
			<path class="st16" d="M29.094,149.389c-1.455-0.586-3.093-0.402-4.644-0.162c-3.791,0.585-7.539,1.445-11.207,2.568
				c1.679,1.698,3.518,3.283,5.526,4.731c2.155,1.554,4.381,2.848,6.664,3.918c2.433-2.846,4.511-5.953,6.026-9.337
				C30.762,150.395,30.014,149.76,29.094,149.389z"/>
			<linearGradient id="SVGID_18_" gradientUnits="userSpaceOnUse" x1="15.6427" y1="50.5305" x2="50.3122" y2="50.5305">
				<stop  offset="0" style="stop-color:#482D9D"/>
				<stop  offset="0.2125" style="stop-color:#3E51B3"/>
				<stop  offset="0.7538" style="stop-color:#26A7EA"/>
				<stop  offset="1" style="stop-color:#1DC9FF"/>
			</linearGradient>
			<path class="st17" d="M19.037,83.919c0.899,1.954,1.136,4.037,0.987,6.158c4.399-0.044,8.742-1.41,12.689-3.387
				c5.266-2.638,10.026-6.441,13.286-11.347c3.26-4.906,4.937-10.958,4.1-16.788c-0.684-4.762-2.951-9.121-4.738-13.587
				c-1.787-4.466-3.123-9.411-1.854-14.051c1.183-4.324,4.476-7.821,6.418-11.815c-3.375-2.108-6.323-4.956-8.821-8.117
				c-8.167,5.47-14.171,13.562-16.47,25.194c-1.521,7.694,1.292,14.653,1.666,22.271c0.424,8.636-5.16,14.974-10.657,21.225
				C17.07,80.836,18.258,82.225,19.037,83.919z"/>
		</g>
		<linearGradient id="SVGID_19_" gradientUnits="userSpaceOnUse" x1="55.5196" y1="60.1248" x2="127.5517" y2="60.1248">
			<stop  offset="0" style="stop-color:#482D9D"/>
			<stop  offset="0.2125" style="stop-color:#3E51B3"/>
			<stop  offset="0.7538" style="stop-color:#26A7EA"/>
			<stop  offset="1" style="stop-color:#1DC9FF"/>
		</linearGradient>
		<path class="st18" d="M126.175,71.401c3.043-5.563,0.773-13.037-4.163-17.016c-4.936-3.98-11.85-4.839-18.061-3.562
			c-3.69,0.759-7.229,2.201-10.958,2.732c-3.729,0.531-7.897-0.02-10.559-2.685c-2.588-2.591-3.345-6.747-6.305-8.904
			c-4.076-2.97-9.748-0.617-14.183,1.786c-2.142,1.161-4.285,2.321-6.427,3.482v32.44l69.545-0.643L126.175,71.401z"/>
	</g>
</g>
<g>
	<g>
		<g>
			<g>
				<g>
					<linearGradient id="SVGID_20_" gradientUnits="userSpaceOnUse" x1="88.5005" y1="138.7413" x2="88.7648" y2="104.9039">
						<stop  offset="0" style="stop-color:#D1D3D4"/>
						<stop  offset="1" style="stop-color:#9D9E9F"/>
					</linearGradient>
					<path class="st19" d="M75.644,117.544c0.011,5.824,0.03,17.053,0.038,21.261c8.808-1.3,17.278-2.449,25.863-2.952
						c0-5.211,0-13.59,0-18.309H75.644z"/>
				</g>
				<g>
					<linearGradient id="SVGID_21_" gradientUnits="userSpaceOnUse" x1="88.5945" y1="87.9063" x2="88.5945" y2="41.2896">
						<stop  offset="0" style="stop-color:#D1D3D4"/>
						<stop  offset="1" style="stop-color:#9D9E9F"/>
					</linearGradient>
					<path class="st20" d="M29.752,108.599v2.492c0,3.971,3.219,7.19,7.19,7.19h103.305c3.971,0,7.19-3.219,7.19-7.19v-2.492H29.752
						z"/>
				</g>
			</g>
			<path class="st21" d="M140.247,39.196h-18.796H36.942c-3.971,0-7.19,3.219-7.19,7.19v62.214h91.699h25.985V46.385
				C147.437,42.415,144.218,39.196,140.247,39.196z"/>
			<g>
				<path class="st22" d="M53.726,108.599H29.752v-45.43c0-13.24,10.733-23.973,23.973-23.973h0V108.599z"/>
				<g>
					<g>
						<g>
							<g>
								<path class="st21" d="M49.44,100.851c-1.11,1.099-2.915,1.098-4.025,0c-1.11-1.098-1.11-2.886,0-3.984s2.916-1.099,4.025,0
									C50.55,97.965,50.55,99.752,49.44,100.851z M46.105,97.549c-0.729,0.722-0.729,1.896,0,2.618
									c0.729,0.722,1.916,0.722,2.645,0c0.729-0.722,0.729-1.896,0-2.618C48.021,96.827,46.834,96.827,46.105,97.549z"/>
							</g>
							<g>
								<path class="st21" d="M51.494,102.884c-0.191,0.189-0.5,0.189-0.69,0l-1.926-1.907c-0.191-0.189-0.191-0.494,0-0.683
									c0.191-0.189,0.5-0.189,0.69,0l1.926,1.907C51.685,102.39,51.685,102.695,51.494,102.884z"/>
							</g>
						</g>
						<path class="st21" d="M40.782,102.084h-6.39c-1.408,0-2.55-1.142-2.55-2.55v0c0-1.408,1.142-2.55,2.55-2.55h6.391
							c1.408,0,2.55,1.142,2.55,2.55v0C43.332,100.942,42.19,102.084,40.782,102.084z"/>
					</g>
					<g>
						<path class="st23" d="M34.497,101.482c-0.157,0-0.285-0.128-0.285-0.285V97.87c0-0.158,0.128-0.285,0.285-0.285
							c0.157,0,0.285,0.128,0.285,0.285v3.327C34.782,101.355,34.654,101.482,34.497,101.482z"/>
					</g>
					<g>
						<rect x="29.752" y="65.801" class="st24" width="23.973" height="14.264"/>
						<g>
							<path class="st21" d="M46.72,69.34h-9.947c-0.218,0-0.425-0.131-0.49-0.339c-0.108-0.345,0.147-0.662,0.475-0.662l9.947,0
								c0.218,0,0.425,0.131,0.49,0.339C47.303,69.023,47.049,69.34,46.72,69.34z"/>
							<path class="st21" d="M38.819,72.953h-3.102c-0.218,0-0.425-0.131-0.49-0.339c-0.108-0.345,0.147-0.662,0.475-0.662l3.102,0
								c0.218,0,0.425,0.131,0.49,0.339C39.402,72.636,39.148,72.953,38.819,72.953z"/>
							<path class="st21" d="M47.776,72.953h-4.887c-0.218,0-0.425-0.131-0.49-0.339c-0.108-0.345,0.147-0.662,0.475-0.662l4.887,0
								c0.218,0,0.425,0.131,0.49,0.339C48.36,72.636,48.105,72.953,47.776,72.953z"/>
							<path class="st21" d="M41.381,72.953h-0.973c-0.248,0-0.479-0.167-0.521-0.411c-0.055-0.316,0.187-0.59,0.493-0.59l0.973,0
								c0.248,0,0.479,0.167,0.521,0.411C41.929,72.679,41.687,72.953,41.381,72.953z"/>
							<path class="st21" d="M43.972,76.567h-8.255c-0.218,0-0.425-0.131-0.49-0.339c-0.108-0.345,0.147-0.662,0.475-0.662h8.255
								c0.218,0,0.425,0.131,0.49,0.339C44.556,76.25,44.301,76.567,43.972,76.567z"/>
							<path class="st21" d="M47.776,76.567h-2.38c-0.218,0-0.425-0.131-0.49-0.339c-0.108-0.345,0.147-0.662,0.475-0.662h2.38
								c0.218,0,0.425,0.131,0.49,0.339C48.36,76.25,48.105,76.567,47.776,76.567z"/>
						</g>
					</g>
					<g>
						<rect x="29.752" y="80.065" class="st25" width="23.973" height="14.264"/>
						<g>
							<path class="st21" d="M46.72,83.604h-9.947c-0.218,0-0.425-0.131-0.49-0.339c-0.108-0.345,0.147-0.662,0.475-0.662h9.947
								c0.218,0,0.425,0.131,0.49,0.339C47.303,83.287,47.049,83.604,46.72,83.604z"/>
							<path class="st21" d="M41.677,87.217h-5.96c-0.218,0-0.425-0.131-0.49-0.339c-0.108-0.345,0.147-0.662,0.475-0.662h5.96
								c0.218,0,0.425,0.131,0.49,0.339C42.26,86.901,42.006,87.217,41.677,87.217z"/>
							<path class="st21" d="M47.776,87.217h-1.029c-0.218,0-0.425-0.131-0.49-0.339c-0.108-0.345,0.147-0.662,0.475-0.662h1.029
								c0.218,0,0.425,0.131,0.49,0.339C48.36,86.901,48.105,87.217,47.776,87.217z"/>
							<path class="st21" d="M45.24,87.217h-4.832c-0.248,0-0.479-0.167-0.521-0.411c-0.055-0.316,0.187-0.59,0.493-0.59l4.832,0
								c0.248,0,0.479,0.167,0.521,0.411C45.787,86.943,45.545,87.217,45.24,87.217z"/>
							<path class="st21" d="M41.115,90.831h-5.398c-0.218,0-0.425-0.131-0.49-0.339c-0.108-0.345,0.147-0.662,0.475-0.662H41.1
								c0.218,0,0.425,0.131,0.49,0.339C41.698,90.514,41.443,90.831,41.115,90.831z"/>
							<path class="st21" d="M47.776,90.831h-5.238c-0.218,0-0.425-0.131-0.49-0.339c-0.108-0.345,0.146-0.662,0.475-0.662h5.238
								c0.218,0,0.425,0.131,0.49,0.339C48.36,90.514,48.105,90.831,47.776,90.831z"/>
						</g>
					</g>
				</g>
				<g>
					<g>
						<g>
							<g>
								<g>
									<path class="st21" d="M43.736,60.325H35.3c-0.307,0-0.556-0.249-0.556-0.556v0c0-0.307,0.249-0.556,0.556-0.556h8.436
										c0.307,0,0.556,0.249,0.556,0.556v0C44.292,60.076,44.043,60.325,43.736,60.325z"/>
									<path class="st21" d="M48.179,60.325h-2.658c-0.307,0-0.556-0.249-0.556-0.556l0,0c0-0.307,0.249-0.556,0.556-0.556
										l2.658,0c0.307,0,0.556,0.249,0.556,0.556l0,0C48.735,60.076,48.486,60.325,48.179,60.325z"/>
								</g>
								<g>
									<path class="st21" d="M36.389,63.046H35.3c-0.307,0-0.556-0.249-0.556-0.556v0c0-0.307,0.249-0.556,0.556-0.556h1.09
										c0.307,0,0.556,0.249,0.556,0.556v0C36.945,62.797,36.696,63.046,36.389,63.046z"/>
									<path class="st21" d="M48.179,63.046h-9.736c-0.307,0-0.556-0.249-0.556-0.556v0c0-0.307,0.249-0.556,0.556-0.556h9.736
										c0.307,0,0.556,0.249,0.556,0.556l0,0C48.735,62.797,48.486,63.046,48.179,63.046z"/>
								</g>
							</g>
						</g>
					</g>
					<g>
						
							<ellipse transform="matrix(0.2298 -0.9732 0.9732 0.2298 -13.8912 77.06)" class="st21" cx="41.739" cy="47.306" rx="4.068" ry="4.068"/>
						<g>
							<path class="st21" d="M48.071,57.325c0-3.737-2.595-6.296-6.332-6.296c-3.737,0-6.331,2.56-6.331,6.296v0.086h12.663V57.325z
								"/>
						</g>
					</g>
				</g>
			</g>
		</g>
		<g>
			<path class="st21" d="M92.849,114.569H84.34c-0.632,0-1.144-0.512-1.144-1.144c0-0.632,0.512-1.144,1.144-1.144h8.509
				c0.632,0,1.144,0.512,1.144,1.144C93.993,114.057,93.481,114.569,92.849,114.569z"/>
		</g>
	</g>
	<g>
		<g>
			<linearGradient id="SVGID_22_" gradientUnits="userSpaceOnUse" x1="58.3026" y1="67.8928" x2="72.4865" y2="67.8928">
				<stop  offset="0" style="stop-color:#E6E7E8"/>
				<stop  offset="1" style="stop-color:#F1F2F2"/>
			</linearGradient>
			<rect x="58.303" y="53.981" class="st26" width="14.184" height="27.824"/>
			<linearGradient id="SVGID_23_" gradientUnits="userSpaceOnUse" x1="72.3773" y1="67.8928" x2="86.5612" y2="67.8928">
				<stop  offset="0" style="stop-color:#E6E7E8"/>
				<stop  offset="1" style="stop-color:#F1F2F2"/>
			</linearGradient>
			<rect x="72.377" y="53.981" class="st27" width="14.184" height="27.824"/>
			<linearGradient id="SVGID_24_" gradientUnits="userSpaceOnUse" x1="86.452" y1="67.8928" x2="100.6359" y2="67.8928">
				<stop  offset="0" style="stop-color:#E6E7E8"/>
				<stop  offset="1" style="stop-color:#F1F2F2"/>
			</linearGradient>
			<rect x="86.452" y="53.981" class="st28" width="14.184" height="27.824"/>
			<linearGradient id="SVGID_25_" gradientUnits="userSpaceOnUse" x1="100.5266" y1="67.8928" x2="114.7106" y2="67.8928">
				<stop  offset="0" style="stop-color:#E6E7E8"/>
				<stop  offset="1" style="stop-color:#F1F2F2"/>
			</linearGradient>
			<rect x="100.527" y="53.981" class="st29" width="14.184" height="27.824"/>
			<linearGradient id="SVGID_26_" gradientUnits="userSpaceOnUse" x1="114.6014" y1="67.8928" x2="128.7853" y2="67.8928">
				<stop  offset="0" style="stop-color:#E6E7E8"/>
				<stop  offset="1" style="stop-color:#F1F2F2"/>
			</linearGradient>
			<rect x="114.601" y="53.981" class="st30" width="14.184" height="27.824"/>
			<linearGradient id="SVGID_27_" gradientUnits="userSpaceOnUse" x1="128.676" y1="67.8928" x2="142.86" y2="67.8928">
				<stop  offset="0" style="stop-color:#E6E7E8"/>
				<stop  offset="1" style="stop-color:#F1F2F2"/>
			</linearGradient>
			<rect x="128.676" y="53.981" class="st31" width="14.184" height="27.824"/>
		</g>
		<linearGradient id="SVGID_28_" gradientUnits="userSpaceOnUse" x1="102.7057" y1="116.2983" x2="102.7057" y2="42.1887">
			<stop  offset="0" style="stop-color:#482D9D"/>
			<stop  offset="0.2125" style="stop-color:#3E51B3"/>
			<stop  offset="0.7538" style="stop-color:#26A7EA"/>
			<stop  offset="1" style="stop-color:#1DC9FF"/>
		</linearGradient>
		<polygon class="st32" points="62.551,75.54 72.377,65.216 84.089,72.955 100.527,68.824 113.17,75.152 136.776,62.016 
			142.86,67.849 142.86,79.398 		"/>
		<linearGradient id="SVGID_29_" gradientUnits="userSpaceOnUse" x1="100.5813" y1="40.9214" x2="100.5813" y2="152.6933">
			<stop  offset="0" style="stop-color:#482D9D"/>
			<stop  offset="0.2125" style="stop-color:#3E51B3"/>
			<stop  offset="0.7538" style="stop-color:#26A7EA"/>
			<stop  offset="1" style="stop-color:#1DC9FF"/>
		</linearGradient>
		<polygon class="st33" points="58.303,73.373 69.609,70.054 72.487,73.515 86.561,67.236 100.527,76.765 114.711,72.001 
			128.676,77.775 142.86,73.373 142.86,81.805 58.303,81.805 		"/>
		<g>
			<g>
				<g>
					<rect x="64.188" y="58.322" class="st34" width="5.992" height="1.103"/>
				</g>
				<g>
					<rect x="60.609" y="58.322" class="st34" width="2.672" height="1.103"/>
				</g>
				<g>
					<rect x="68.244" y="60.567" class="st34" width="1.936" height="1.103"/>
				</g>
				<g>
					<rect x="60.609" y="60.567" class="st34" width="6.886" height="1.103"/>
				</g>
			</g>
			<g>
				<g>
					<rect x="75.845" y="58.322" class="st34" width="8.409" height="1.103"/>
				</g>
				<g>
					<rect x="74.684" y="58.322" class="st34" width="0.885" height="1.103"/>
				</g>
				<g>
					<rect x="79.469" y="60.567" class="st34" width="4.785" height="1.103"/>
				</g>
				<g>
					<rect x="74.684" y="60.567" class="st34" width="3.957" height="1.103"/>
				</g>
			</g>
			<g>
				<g>
					<rect x="92.337" y="58.322" class="st34" width="5.992" height="1.103"/>
				</g>
				<g>
					<rect x="88.759" y="58.322" class="st34" width="4.612" height="1.103"/>
				</g>
				<g>
					<rect x="92.544" y="60.567" class="st34" width="5.785" height="1.103"/>
				</g>
				<g>
					<rect x="88.759" y="60.567" class="st34" width="2.525" height="1.103"/>
				</g>
			</g>
			<g>
				<g>
					<rect x="106.412" y="58.322" class="st34" width="5.992" height="1.103"/>
				</g>
				<g>
					<rect x="102.834" y="58.322" class="st34" width="2.672" height="1.103"/>
				</g>
				<g>
					<rect x="105.344" y="60.567" class="st34" width="7.06" height="1.103"/>
				</g>
				<g>
					<rect x="102.834" y="60.567" class="st34" width="1.604" height="1.103"/>
				</g>
			</g>
			<g>
				<g>
					<rect x="124.957" y="58.322" class="st34" width="1.522" height="1.103"/>
				</g>
				<g>
					<rect x="116.908" y="58.322" class="st34" width="7.222" height="1.103"/>
				</g>
				<g>
					<rect x="120.664" y="60.567" class="st34" width="5.815" height="1.103"/>
				</g>
				<g>
					<rect x="116.908" y="60.567" class="st34" width="2.85" height="1.103"/>
				</g>
			</g>
			<g>
				<g>
					<rect x="134.561" y="58.322" class="st34" width="5.992" height="1.103"/>
				</g>
				<g>
					<rect x="130.983" y="58.322" class="st34" width="5.789" height="1.103"/>
				</g>
				<g>
					<rect x="130.983" y="60.567" class="st34" width="6.886" height="1.103"/>
				</g>
			</g>
		</g>
	</g>
	<g>
		<path class="st35" d="M147.437,46.465H53.726v-7.269h86.441C144.182,39.196,147.437,42.45,147.437,46.465L147.437,46.465z"/>
		<g>
			<path class="st21" d="M72.678,43.447h-9.74c-0.34,0-0.617-0.276-0.617-0.617l0,0c0-0.34,0.276-0.617,0.617-0.617h9.74
				c0.34,0,0.617,0.276,0.617,0.617v0C73.294,43.171,73.018,43.447,72.678,43.447z"/>
			<path class="st21" d="M89.065,43.447h-9.74c-0.34,0-0.617-0.276-0.617-0.617l0,0c0-0.34,0.276-0.617,0.617-0.617h9.74
				c0.34,0,0.617,0.276,0.617,0.617v0C89.681,43.171,89.405,43.447,89.065,43.447z"/>
			<path class="st21" d="M105.451,43.447h-9.74c-0.34,0-0.617-0.276-0.617-0.617l0,0c0-0.34,0.276-0.617,0.617-0.617h9.74
				c0.34,0,0.617,0.276,0.617,0.617l0,0C106.068,43.171,105.792,43.447,105.451,43.447z"/>
			<path class="st21" d="M121.838,43.447h-9.74c-0.34,0-0.617-0.276-0.617-0.617l0,0c0-0.34,0.276-0.617,0.617-0.617h9.74
				c0.34,0,0.617,0.276,0.617,0.617l0,0C122.454,43.171,122.178,43.447,121.838,43.447z"/>
			<path class="st21" d="M138.224,43.447h-9.74c-0.34,0-0.617-0.276-0.617-0.617l0,0c0-0.34,0.276-0.617,0.617-0.617h9.74
				c0.34,0,0.617,0.276,0.617,0.617l0,0C138.841,43.171,138.565,43.447,138.224,43.447z"/>
		</g>
	</g>
	<g>
		<g>
			<rect x="58.303" y="49.065" class="st24" width="16.824" height="2.712"/>
			<rect x="76.663" y="49.065" class="st24" width="4.08" height="2.712"/>
		</g>
	</g>
	<g>
		<g>
			<g>
				<rect x="58.303" y="84.402" class="st25" width="9.468" height="9.468"/>
				<linearGradient id="SVGID_30_" gradientUnits="userSpaceOnUse" x1="81.193" y1="123.0107" x2="81.193" y2="91.7086">
					<stop  offset="0" style="stop-color:#482D9D"/>
					<stop  offset="0.2125" style="stop-color:#3E51B3"/>
					<stop  offset="0.7538" style="stop-color:#26A7EA"/>
					<stop  offset="1" style="stop-color:#1DC9FF"/>
				</linearGradient>
				<rect x="69.57" y="84.402" class="st36" width="23.246" height="1.991"/>
				<g>
					<g>
						<path class="st34" d="M99.994,89.612H70.046c-0.263,0-0.476-0.213-0.476-0.476s0.213-0.476,0.476-0.476h29.948
							c0.263,0,0.476,0.213,0.476,0.476S100.257,89.612,99.994,89.612z"/>
					</g>
					<g>
						<path class="st34" d="M111.379,89.612h-9.784c-0.263,0-0.476-0.213-0.476-0.476s0.213-0.476,0.476-0.476h9.784
							c0.263,0,0.476,0.213,0.476,0.476S111.642,89.612,111.379,89.612z"/>
					</g>
					<g>
						<path class="st34" d="M128.659,89.612h-15.5c-0.263,0-0.476-0.213-0.476-0.476s0.213-0.476,0.476-0.476h15.5
							c0.263,0,0.476,0.213,0.476,0.476S128.922,89.612,128.659,89.612z"/>
					</g>
					<g>
						<path class="st34" d="M117.351,91.803l-47.305,0c-0.263,0-0.476-0.213-0.476-0.476s0.213-0.476,0.476-0.476h47.305
							c0.263,0,0.476,0.213,0.476,0.476S117.614,91.803,117.351,91.803z"/>
					</g>
				</g>
			</g>
			<g>
				<rect x="58.303" y="96.534" class="st24" width="9.468" height="9.468"/>
				<linearGradient id="SVGID_31_" gradientUnits="userSpaceOnUse" x1="81.193" y1="123.0107" x2="81.193" y2="91.7084">
					<stop  offset="0" style="stop-color:#482D9D"/>
					<stop  offset="0.2125" style="stop-color:#3E51B3"/>
					<stop  offset="0.7538" style="stop-color:#26A7EA"/>
					<stop  offset="1" style="stop-color:#1DC9FF"/>
				</linearGradient>
				<rect x="69.57" y="96.534" class="st37" width="23.246" height="1.991"/>
				<g>
					<g>
						<path class="st38" d="M72.271,101.744h-2.225c-0.263,0-0.476-0.213-0.476-0.476s0.213-0.476,0.476-0.476h2.225
							c0.263,0,0.476,0.213,0.476,0.476S72.534,101.744,72.271,101.744z"/>
					</g>
					<g>
						<path class="st38" d="M122.529,101.744h-9.37c-0.263,0-0.476-0.213-0.476-0.476s0.213-0.476,0.476-0.476h9.37
							c0.263,0,0.476,0.213,0.476,0.476S122.792,101.744,122.529,101.744z"/>
					</g>
					<g>
						<path class="st38" d="M111.379,101.744h-37.68c-0.263,0-0.476-0.213-0.476-0.476s0.213-0.476,0.476-0.476h37.68
							c0.263,0,0.476,0.213,0.476,0.476S111.642,101.744,111.379,101.744z"/>
					</g>
					<g>
						<path class="st38" d="M117.351,103.935H81.026c-0.263,0-0.476-0.213-0.476-0.476s0.213-0.476,0.476-0.476h36.325
							c0.263,0,0.476,0.213,0.476,0.476S117.614,103.935,117.351,103.935z"/>
					</g>
					<g>
						<path class="st38" d="M79.295,103.935h-9.249c-0.263,0-0.476-0.213-0.476-0.476s0.213-0.476,0.476-0.476h9.249
							c0.263,0,0.476,0.213,0.476,0.476S79.558,103.935,79.295,103.935z"/>
					</g>
				</g>
			</g>
		</g>
	</g>
</g>
<g>
	<g>
		<linearGradient id="SVGID_32_" gradientUnits="userSpaceOnUse" x1="165.1864" y1="112.8578" x2="158.1665" y2="71.2064">
			<stop  offset="0" style="stop-color:#42E397"/>
			<stop  offset="1" style="stop-color:#3CB6B5"/>
		</linearGradient>
		<polygon class="st39" points="140.619,72.802 140.619,97.157 133.595,105.198 133.595,105.198 187.199,103.349 189.047,74.651 
			187.199,72.802 		"/>
		<linearGradient id="SVGID_33_" gradientUnits="userSpaceOnUse" x1="161.3212" y1="90.2638" x2="161.3212" y2="188.7901">
			<stop  offset="0" style="stop-color:#42E397"/>
			<stop  offset="1" style="stop-color:#3CB6B5"/>
		</linearGradient>
		<polygon class="st40" points="142.468,74.651 142.468,99.006 135.938,103.563 133.595,105.198 189.047,105.198 189.047,74.651 		
			"/>
	</g>
	<g>
		<g>
			
				<linearGradient id="SVGID_34_" gradientUnits="userSpaceOnUse" x1="168.1169" y1="419.3732" x2="178.348" y2="408.2652" gradientTransform="matrix(1 -0.0016 0.0016 1 9.1717 -334.1073)">
				<stop  offset="0" style="stop-color:#FFDE39"/>
				<stop  offset="0.0935" style="stop-color:#FFC63C"/>
				<stop  offset="0.2863" style="stop-color:#FE9843"/>
				<stop  offset="0.4154" style="stop-color:#FE7D4B"/>
				<stop  offset="0.6521" style="stop-color:#FE4F59"/>
				<stop  offset="1" style="stop-color:#ED327F"/>
			</linearGradient>
			<path class="st41" d="M175.744,82.51c2.939-0.005,5.422,1.954,6.212,4.638l4.526-1.699c-1.483-4.515-5.736-7.772-10.746-7.764h0
				L175.744,82.51L175.744,82.51z"/>
			
				<linearGradient id="SVGID_35_" gradientUnits="userSpaceOnUse" x1="167.215" y1="424.6384" x2="178.0673" y2="442.3966" gradientTransform="matrix(1 -0.0016 0.0016 1 9.1717 -334.1073)">
				<stop  offset="0" style="stop-color:#FFDE39"/>
				<stop  offset="0.0935" style="stop-color:#FFC63C"/>
				<stop  offset="0.2863" style="stop-color:#FE9843"/>
				<stop  offset="0.4154" style="stop-color:#FE7D4B"/>
				<stop  offset="0.6521" style="stop-color:#FE4F59"/>
				<stop  offset="1" style="stop-color:#ED327F"/>
			</linearGradient>
			<path class="st42" d="M181.956,87.148c0.17,0.577,0.263,1.186,0.264,1.817c0.006,3.571-2.885,6.47-6.455,6.476
				c-1.171,0.002-2.269-0.309-3.217-0.852l-2.761,3.972c1.737,1.083,3.788,1.709,5.986,1.705c6.236-0.01,11.283-5.073,11.273-11.309
				c-0.002-1.225-0.2-2.405-0.563-3.509L181.956,87.148z"/>
			
				<linearGradient id="SVGID_36_" gradientUnits="userSpaceOnUse" x1="146.0586" y1="414.636" x2="168.6401" y2="425.1594" gradientTransform="matrix(1 -0.0016 0.0016 1 9.1717 -334.1073)">
				<stop  offset="0" style="stop-color:#FFDE39"/>
				<stop  offset="0.0935" style="stop-color:#FFC63C"/>
				<stop  offset="0.2863" style="stop-color:#FE9843"/>
				<stop  offset="0.4154" style="stop-color:#FE7D4B"/>
				<stop  offset="0.6521" style="stop-color:#FE4F59"/>
				<stop  offset="1" style="stop-color:#ED327F"/>
			</linearGradient>
			<path class="st43" d="M169.288,88.986c-0.006-3.571,2.885-6.47,6.455-6.476l-0.008-4.825c-6.236,0.01-11.283,5.073-11.273,11.309
				c0.006,4.038,2.132,7.577,5.323,9.568l2.761-3.972C170.604,93.476,169.292,91.385,169.288,88.986z"/>
		</g>
		<g>
			
				<linearGradient id="SVGID_37_" gradientUnits="userSpaceOnUse" x1="137.2489" y1="410.0631" x2="137.2489" y2="434.7739" gradientTransform="matrix(1 -0.0016 0.0016 1 9.1717 -334.1073)">
				<stop  offset="0" style="stop-color:#FFDE39"/>
				<stop  offset="0.0935" style="stop-color:#FFC63C"/>
				<stop  offset="0.2863" style="stop-color:#FE9843"/>
				<stop  offset="0.4154" style="stop-color:#FE7D4B"/>
				<stop  offset="0.6521" style="stop-color:#FE4F59"/>
				<stop  offset="1" style="stop-color:#ED327F"/>
			</linearGradient>
			<polygon class="st44" points="149.698,82.946 144.478,82.954 144.47,77.734 149.69,77.726 			"/>
			
				<linearGradient id="SVGID_38_" gradientUnits="userSpaceOnUse" x1="137.2487" y1="410.0629" x2="137.2487" y2="434.7737" gradientTransform="matrix(1 -0.0016 0.0016 1 9.1717 -334.1073)">
				<stop  offset="0" style="stop-color:#FFDE39"/>
				<stop  offset="0.0935" style="stop-color:#FFC63C"/>
				<stop  offset="0.2863" style="stop-color:#FE9843"/>
				<stop  offset="0.4154" style="stop-color:#FE7D4B"/>
				<stop  offset="0.6521" style="stop-color:#FE4F59"/>
				<stop  offset="1" style="stop-color:#ED327F"/>
			</linearGradient>
			<polygon class="st45" points="149.712,91.627 144.492,91.635 144.483,86.414 149.704,86.406 			"/>
			
				<linearGradient id="SVGID_39_" gradientUnits="userSpaceOnUse" x1="137.2486" y1="410.0627" x2="137.2486" y2="434.7735" gradientTransform="matrix(1 -0.0016 0.0016 1 9.1717 -334.1073)">
				<stop  offset="0" style="stop-color:#FFDE39"/>
				<stop  offset="0.0935" style="stop-color:#FFC63C"/>
				<stop  offset="0.2863" style="stop-color:#FE9843"/>
				<stop  offset="0.4154" style="stop-color:#FE7D4B"/>
				<stop  offset="0.6521" style="stop-color:#FE4F59"/>
				<stop  offset="1" style="stop-color:#ED327F"/>
			</linearGradient>
			<polygon class="st46" points="149.726,100.307 144.505,100.316 144.497,95.095 149.718,95.087 			"/>
		</g>
		<g>
			<g>
				<g>
					<path class="st21" d="M154.373,79.638l-3.06,0.005c-0.249,0-0.45-0.201-0.451-0.449c0-0.249,0.201-0.45,0.449-0.451l3.06-0.005
						c0.249,0,0.45,0.201,0.451,0.449C154.823,79.436,154.622,79.638,154.373,79.638z"/>
				</g>
				<g>
					<path class="st21" d="M160.086,81.91l-8.77,0.014c-0.249,0-0.45-0.201-0.451-0.449c0-0.249,0.201-0.45,0.449-0.451l8.77-0.014
						c0.249,0,0.45,0.201,0.451,0.449C160.536,81.707,160.335,81.909,160.086,81.91z"/>
				</g>
			</g>
			<g>
				<g>
					<path class="st21" d="M158.955,88.312l-7.628,0.012c-0.249,0-0.45-0.201-0.451-0.449c0-0.249,0.201-0.45,0.449-0.451
						l7.628-0.012c0.249,0,0.45,0.201,0.451,0.449C159.404,88.11,159.203,88.311,158.955,88.312z"/>
				</g>
				<g>
					<path class="st21" d="M160.1,90.59l-4.385,0.007c-0.249,0-0.45-0.201-0.451-0.449c0-0.249,0.201-0.45,0.449-0.451l4.385-0.007
						c0.249,0,0.45,0.201,0.451,0.449C160.55,90.388,160.349,90.59,160.1,90.59z"/>
				</g>
				<g>
					<path class="st21" d="M153.97,90.6l-2.64,0.004c-0.249,0-0.45-0.201-0.451-0.449c0-0.249,0.201-0.45,0.449-0.451l2.64-0.004
						c0.249,0,0.45,0.201,0.451,0.449C154.42,90.398,154.219,90.599,153.97,90.6z"/>
				</g>
			</g>
			<g>
				<g>
					<path class="st21" d="M158.968,96.992l-4.328,0.007c-0.249,0-0.45-0.201-0.451-0.449c0-0.249,0.201-0.45,0.449-0.451
						l4.328-0.007c0.249,0,0.45,0.201,0.451,0.449C159.418,96.79,159.217,96.992,158.968,96.992z"/>
				</g>
				<g>
					<path class="st21" d="M153.2,97.002l-1.86,0.003c-0.249,0-0.45-0.201-0.451-0.449c0-0.249,0.201-0.45,0.449-0.451l1.86-0.003
						c0.249,0,0.45,0.201,0.451,0.449C153.65,96.799,153.449,97.001,153.2,97.002z"/>
				</g>
				<g>
					<path class="st21" d="M160.114,99.271l-0.785,0.001c-0.249,0-0.45-0.201-0.451-0.449c0-0.249,0.201-0.45,0.449-0.451
						l0.785-0.001c0.249,0,0.45,0.201,0.451,0.449C160.563,99.069,160.362,99.27,160.114,99.271z"/>
				</g>
				<g>
					<path class="st21" d="M157.584,99.275l-6.24,0.01c-0.249,0-0.45-0.201-0.451-0.449s0.201-0.45,0.449-0.451l6.24-0.01
						c0.249,0,0.45,0.201,0.451,0.449C158.034,99.073,157.833,99.274,157.584,99.275z"/>
				</g>
			</g>
		</g>
	</g>
</g>
<g>
	<g>
		<linearGradient id="SVGID_40_" gradientUnits="userSpaceOnUse" x1="31.1141" y1="72.2406" x2="46.562" y2="92.9779">
			<stop  offset="0" style="stop-color:#FFDE39"/>
			<stop  offset="0.0935" style="stop-color:#FFC63C"/>
			<stop  offset="0.2863" style="stop-color:#FE9843"/>
			<stop  offset="0.4154" style="stop-color:#FE7D4B"/>
			<stop  offset="0.6521" style="stop-color:#FE4F59"/>
			<stop  offset="1" style="stop-color:#ED327F"/>
		</linearGradient>
		<polygon class="st47" points="60.411,74.751 59.222,73.712 22.922,98.061 24.111,99.1 37.221,99.178 41.675,104.288 46.345,99.1 
			60.411,99.1 		"/>
		<linearGradient id="SVGID_41_" gradientUnits="userSpaceOnUse" x1="41.0719" y1="109.6457" x2="41.0719" y2="56.4058">
			<stop  offset="0" style="stop-color:#FFDE39"/>
			<stop  offset="0.0935" style="stop-color:#FFC63C"/>
			<stop  offset="0.2863" style="stop-color:#FE9843"/>
			<stop  offset="0.4154" style="stop-color:#FE7D4B"/>
			<stop  offset="0.6521" style="stop-color:#FE4F59"/>
			<stop  offset="1" style="stop-color:#ED327F"/>
		</linearGradient>
		<polygon class="st48" points="59.222,73.712 22.922,73.712 22.922,98.061 36.247,98.061 40.701,103.171 45.156,98.061 
			59.222,98.061 		"/>
	</g>
	<g>
		<g>
			<path class="st21" d="M41.666,80.975H31.656c-0.339,0-0.614-0.282-0.614-0.63c0-0.348,0.275-0.63,0.614-0.63h10.011
				c0.339,0,0.614,0.282,0.614,0.63C42.28,80.693,42.006,80.975,41.666,80.975z"/>
		</g>
		<g>
			<path class="st21" d="M29.896,80.975H28.04c-0.339,0-0.614-0.282-0.614-0.63c0-0.348,0.275-0.63,0.614-0.63h1.855
				c0.339,0,0.614,0.282,0.614,0.63C30.51,80.693,30.235,80.975,29.896,80.975z"/>
		</g>
		<g>
			<path class="st21" d="M55.292,85.424h-5.258c-0.339,0-0.614-0.282-0.614-0.63c0-0.348,0.275-0.63,0.614-0.63h5.258
				c0.339,0,0.614,0.282,0.614,0.63C55.906,85.142,55.632,85.424,55.292,85.424z"/>
		</g>
		<g>
			<path class="st21" d="M48.152,85.424H28.04c-0.339,0-0.614-0.282-0.614-0.63c0-0.348,0.275-0.63,0.614-0.63h20.111
				c0.339,0,0.614,0.282,0.614,0.63C48.766,85.142,48.491,85.424,48.152,85.424z"/>
		</g>
	</g>
	<g>
		<linearGradient id="SVGID_42_" gradientUnits="userSpaceOnUse" x1="41.9393" y1="102.2365" x2="41.9393" y2="112.0884">
			<stop  offset="0" style="stop-color:#FFDE39"/>
			<stop  offset="0.3266" style="stop-color:#FFC63C"/>
			<stop  offset="1" style="stop-color:#FE9843"/>
		</linearGradient>
		<path class="st49" d="M53.765,88.558c0.343,0.484,0.546,1.074,0.546,1.712c0,1.636-1.326,2.962-2.962,2.962H28.793
			c-0.285,0-0.56-0.041-0.821-0.116c0.537,0.756,1.418,1.25,2.416,1.25h22.556c1.636,0,2.962-1.326,2.962-2.962
			C55.906,90.053,55.002,88.914,53.765,88.558z"/>
		<linearGradient id="SVGID_43_" gradientUnits="userSpaceOnUse" x1="25.8313" y1="90.8371" x2="54.3112" y2="90.8371">
			<stop  offset="0" style="stop-color:#FFDE39"/>
			<stop  offset="0.3266" style="stop-color:#FFC63C"/>
			<stop  offset="1" style="stop-color:#FE9843"/>
		</linearGradient>
		<path class="st50" d="M51.349,93.232c1.636,0,2.962-1.326,2.962-2.962c0-0.638-0.203-1.229-0.546-1.712
			c-0.261-0.075-0.536-0.116-0.821-0.116H30.388c-1.636,0-2.962,1.326-2.962,2.962c0,0.638,0.202,1.229,0.546,1.712
			c0.261,0.075,0.536,0.116,0.821,0.116H51.349z"/>
	</g>
	<g>
		<g>
			<path class="st21" d="M50.872,91.829h-9.849c-0.229,0-0.415-0.19-0.415-0.425s0.186-0.425,0.415-0.425h9.849
				c0.229,0,0.415,0.19,0.415,0.425S51.101,91.829,50.872,91.829z"/>
		</g>
		<g>
			<path class="st21" d="M33.454,91.829h-0.994c-0.229,0-0.415-0.19-0.415-0.425s0.186-0.425,0.415-0.425h0.994
				c0.229,0,0.415,0.19,0.415,0.425S33.684,91.829,33.454,91.829z"/>
		</g>
		<g>
			<path class="st21" d="M39.793,91.829h-5.15c-0.229,0-0.415-0.19-0.415-0.425s0.186-0.425,0.415-0.425h5.15
				c0.229,0,0.415,0.19,0.415,0.425S40.022,91.829,39.793,91.829z"/>
		</g>
	</g>
	<g>
		<g>
			<path class="st21" d="M55.479,77.865c-0.105,0-0.21-0.04-0.29-0.12c-0.16-0.16-0.16-0.42,0-0.58l1.822-1.822
				c0.16-0.16,0.419-0.16,0.58,0c0.16,0.16,0.16,0.42,0,0.58l-1.822,1.822C55.689,77.825,55.584,77.865,55.479,77.865z"/>
		</g>
		<g>
			<path class="st21" d="M57.301,77.865c-0.105,0-0.21-0.04-0.29-0.12l-1.822-1.822c-0.16-0.16-0.16-0.42,0-0.58
				c0.16-0.16,0.419-0.16,0.58,0l1.822,1.822c0.16,0.16,0.16,0.42,0,0.58C57.511,77.825,57.406,77.865,57.301,77.865z"/>
		</g>
	</g>
</g>
<g>
	<g>
		<path class="st21" d="M78.364,84.895h-1.835c-0.313,0-0.567-0.254-0.567-0.567c0-0.313,0.254-0.567,0.567-0.567h1.835
			c0.313,0,0.567,0.254,0.567,0.567C78.931,84.642,78.677,84.895,78.364,84.895z"/>
	</g>
	<g>
		<path class="st21" d="M74.683,84.895H62.029c-0.313,0-0.567-0.254-0.567-0.567c0-0.313,0.254-0.567,0.567-0.567h12.654
			c0.313,0,0.567,0.254,0.567,0.567C75.25,84.642,74.996,84.895,74.683,84.895z"/>
	</g>
	<g>
		<path class="st21" d="M100.013,89.567H89.715c-0.313,0-0.567-0.254-0.567-0.567c0-0.313,0.254-0.567,0.567-0.567h10.297
			c0.313,0,0.567,0.254,0.567,0.567C100.579,89.313,100.326,89.567,100.013,89.567z"/>
	</g>
	<g>
		<path class="st21" d="M87.943,89.567H70.715c-0.313,0-0.567-0.254-0.567-0.567c0-0.313,0.254-0.567,0.567-0.567h17.228
			c0.313,0,0.567,0.254,0.567,0.567C88.51,89.313,88.256,89.567,87.943,89.567z"/>
	</g>
	<g>
		<path class="st21" d="M94.189,94.238H78.635c-0.313,0-0.567-0.254-0.567-0.567c0-0.313,0.254-0.567,0.567-0.567h15.554
			c0.313,0,0.567,0.254,0.567,0.567C94.755,93.984,94.502,94.238,94.189,94.238z"/>
	</g>
	<g>
		<path class="st21" d="M76.417,94.238H64.55c-0.313,0-0.567-0.254-0.567-0.567c0-0.313,0.254-0.567,0.567-0.567h11.867
			c0.313,0,0.567,0.254,0.567,0.567C76.984,93.984,76.73,94.238,76.417,94.238z"/>
	</g>
</g>
<g>
	<g>
		<path class="st21" d="M143.385,90.769h10.297c0.313,0,0.567,0.254,0.567,0.567c0,0.313-0.254,0.567-0.567,0.567h-10.297
			c-0.313,0-0.567-0.254-0.567-0.567C142.818,91.023,143.072,90.769,143.385,90.769z"/>
	</g>
	<g>
		<path class="st21" d="M155.454,90.769h17.228c0.313,0,0.567,0.254,0.567,0.567c0,0.313-0.254,0.567-0.567,0.567h-17.228
			c-0.313,0-0.567-0.254-0.567-0.567C154.888,91.023,155.141,90.769,155.454,90.769z"/>
	</g>
	<g>
		<path class="st21" d="M150.606,86.098h2.977c0.313,0,0.567,0.254,0.567,0.567c0,0.313-0.254,0.567-0.567,0.567h-2.977
			c-0.313,0-0.567-0.254-0.567-0.567C150.039,86.351,150.293,86.098,150.606,86.098z"/>
	</g>
	<g>
		<path class="st21" d="M155.801,86.098h11.867c0.313,0,0.567,0.254,0.567,0.567c0,0.313-0.254,0.567-0.567,0.567h-11.867
			c-0.313,0-0.567-0.254-0.567-0.567C155.234,86.351,155.488,86.098,155.801,86.098z"/>
	</g>
</g>
<g>
	<g>
		<g>
			<g>
				<path class="st21" d="M55.679,28.848c-0.076-0.311,0.114-0.626,0.426-0.702l1.425-0.349c0.311-0.076,0.626,0.114,0.702,0.426
					s-0.114,0.626-0.426,0.702l-1.425,0.349C56.069,29.35,55.755,29.159,55.679,28.848z"/>
			</g>
			<g>
				<path class="st21" d="M51.783,29.802c-0.076-0.311,0.114-0.626,0.426-0.702l1.425-0.349c0.311-0.076,0.626,0.114,0.702,0.426
					c0.076,0.311-0.114,0.626-0.426,0.702l-1.425,0.349C52.174,30.304,51.86,30.114,51.783,29.802z"/>
			</g>
		</g>
		<g>
			<g>
				<path class="st21" d="M55.095,31.811l-0.349-1.425c-0.076-0.311,0.114-0.626,0.426-0.702c0.311-0.076,0.626,0.114,0.702,0.426
					l0.349,1.425c0.076,0.311-0.114,0.626-0.426,0.702C55.486,32.313,55.172,32.122,55.095,31.811z"/>
			</g>
			<g>
				<path class="st21" d="M54.141,27.915l-0.349-1.425c-0.076-0.311,0.114-0.626,0.426-0.702c0.311-0.076,0.626,0.114,0.702,0.426
					l0.349,1.425c0.076,0.311-0.114,0.626-0.426,0.702C54.532,28.417,54.217,28.227,54.141,27.915z"/>
			</g>
		</g>
	</g>
	<g>
		<g>
			<g>
				<path class="st21" d="M175.25,98.25c-0.117,0.226-0.394,0.314-0.619,0.197l-1.032-0.534c-0.226-0.117-0.314-0.394-0.197-0.62
					c0.117-0.226,0.394-0.314,0.62-0.197l1.032,0.534C175.278,97.747,175.367,98.025,175.25,98.25z"/>
			</g>
			<g>
				<path class="st21" d="M178.071,99.709c-0.117,0.226-0.394,0.314-0.62,0.197l-1.032-0.534c-0.226-0.117-0.314-0.394-0.197-0.62
					c0.117-0.226,0.394-0.314,0.619-0.197l1.032,0.534C178.099,99.206,178.188,99.483,178.071,99.709z"/>
			</g>
		</g>
		<g>
			<g>
				<path class="st21" d="M177.141,96.786l-0.534,1.032c-0.117,0.226-0.394,0.314-0.619,0.197s-0.314-0.394-0.197-0.62l0.534-1.032
					c0.117-0.226,0.394-0.314,0.62-0.197C177.169,96.283,177.257,96.561,177.141,96.786z"/>
			</g>
			<g>
				<path class="st21" d="M175.682,99.607l-0.534,1.032c-0.117,0.226-0.394,0.314-0.619,0.197c-0.226-0.117-0.314-0.394-0.197-0.62
					l0.534-1.032c0.117-0.226,0.394-0.314,0.619-0.197C175.71,99.105,175.799,99.382,175.682,99.607z"/>
			</g>
		</g>
	</g>
	<g>
		<g>
			<g>
				<path class="st21" d="M40.181,30.01c0.242-0.211,0.608-0.186,0.819,0.056l0.965,1.106c0.211,0.242,0.186,0.608-0.056,0.819
					c-0.242,0.211-0.608,0.186-0.819-0.056l-0.965-1.106C39.915,30.588,39.94,30.221,40.181,30.01z"/>
			</g>
			<g>
				<path class="st21" d="M37.544,26.988c0.242-0.211,0.608-0.186,0.819,0.056l0.965,1.106c0.211,0.242,0.186,0.608-0.056,0.819
					c-0.242,0.211-0.608,0.186-0.819-0.056l-0.965-1.106C37.278,27.566,37.303,27.199,37.544,26.988z"/>
			</g>
		</g>
		<g>
			<g>
				<path class="st21" d="M37.281,30.853l1.106-0.965c0.242-0.211,0.608-0.186,0.819,0.056c0.211,0.242,0.186,0.608-0.056,0.819
					l-1.106,0.965c-0.242,0.211-0.608,0.186-0.819-0.056C37.015,31.43,37.04,31.064,37.281,30.853z"/>
			</g>
			<g>
				<path class="st21" d="M40.303,28.216l1.106-0.965c0.242-0.211,0.608-0.186,0.819,0.056c0.211,0.242,0.186,0.608-0.056,0.819
					l-1.106,0.965c-0.242,0.211-0.608,0.186-0.819-0.056C40.037,28.793,40.062,28.427,40.303,28.216z"/>
			</g>
		</g>
	</g>
	<g>
		<g>
			<g>
				<path class="st21" d="M32.757,31.036c0.024-0.24,0.238-0.414,0.477-0.391l1.097,0.11c0.24,0.024,0.414,0.238,0.391,0.477
					c-0.024,0.24-0.238,0.414-0.477,0.391l-1.097-0.11C32.908,31.489,32.733,31.275,32.757,31.036z"/>
			</g>
			<g>
				<path class="st21" d="M29.76,30.736c0.024-0.24,0.238-0.414,0.477-0.391l1.097,0.11c0.24,0.024,0.414,0.238,0.391,0.477
					c-0.024,0.24-0.238,0.414-0.477,0.391l-1.097-0.11C29.911,31.19,29.736,30.976,29.76,30.736z"/>
			</g>
		</g>
		<g>
			<g>
				<path class="st21" d="M31.602,32.988l0.11-1.097c0.024-0.24,0.238-0.414,0.477-0.391c0.24,0.024,0.414,0.238,0.391,0.477
					l-0.11,1.097c-0.024,0.24-0.238,0.414-0.477,0.391C31.753,33.441,31.578,33.227,31.602,32.988z"/>
			</g>
			<g>
				<path class="st21" d="M31.902,29.99l0.11-1.097c0.024-0.24,0.238-0.414,0.477-0.391c0.24,0.024,0.414,0.238,0.391,0.477
					l-0.11,1.097c-0.024,0.24-0.238,0.414-0.477,0.391C32.053,30.444,31.878,30.23,31.902,29.99z"/>
			</g>
		</g>
	</g>
	<g>
		<g>
			<g>
				<path class="st21" d="M155.604,89.561c-0.233-0.1-0.342-0.37-0.242-0.603l0.457-1.068c0.1-0.233,0.37-0.342,0.603-0.242
					c0.233,0.1,0.342,0.37,0.242,0.603l-0.457,1.068C156.107,89.553,155.837,89.661,155.604,89.561z"/>
			</g>
			<g>
				<path class="st21" d="M154.356,92.482c-0.233-0.1-0.342-0.37-0.242-0.603l0.457-1.068c0.1-0.233,0.37-0.342,0.603-0.242
					s0.342,0.37,0.242,0.603l-0.457,1.068C154.859,92.473,154.589,92.582,154.356,92.482z"/>
			</g>
		</g>
		<g>
			<g>
				<path class="st21" d="M157.202,91.34l-1.068-0.457c-0.233-0.1-0.342-0.37-0.242-0.603c0.1-0.233,0.37-0.342,0.603-0.242
					l1.068,0.457c0.233,0.1,0.342,0.37,0.242,0.603C157.706,91.331,157.436,91.439,157.202,91.34z"/>
			</g>
			<g>
				<path class="st21" d="M154.282,90.092l-1.068-0.457c-0.233-0.1-0.342-0.37-0.242-0.603c0.1-0.233,0.37-0.342,0.603-0.242
					l1.068,0.457c0.233,0.1,0.342,0.37,0.242,0.603C154.785,90.083,154.515,90.192,154.282,90.092z"/>
			</g>
		</g>
	</g>
	<g>
		<g>
			<g>
				<path class="st21" d="M33.408,145.396c0.294-0.029,0.555,0.186,0.584,0.48l0.131,1.344c0.029,0.294-0.186,0.555-0.48,0.584
					c-0.294,0.029-0.555-0.186-0.584-0.48l-0.131-1.344C32.9,145.686,33.114,145.425,33.408,145.396z"/>
			</g>
			<g>
				<path class="st21" d="M33.049,141.723c0.294-0.029,0.555,0.186,0.584,0.48l0.131,1.344c0.029,0.294-0.186,0.555-0.48,0.584
					c-0.294,0.029-0.555-0.186-0.584-0.48l-0.131-1.344C32.541,142.013,32.756,141.751,33.049,141.723z"/>
			</g>
		</g>
		<g>
			<g>
				<path class="st21" d="M30.786,144.477l1.344-0.131c0.294-0.029,0.555,0.186,0.584,0.48c0.029,0.294-0.186,0.555-0.48,0.584
					l-1.344,0.131c-0.294,0.029-0.555-0.186-0.584-0.48C30.277,144.766,30.492,144.505,30.786,144.477z"/>
			</g>
			<g>
				<path class="st21" d="M34.459,144.118l1.344-0.131c0.294-0.029,0.555,0.186,0.584,0.48c0.029,0.294-0.186,0.555-0.48,0.584
					l-1.344,0.131c-0.294,0.029-0.555-0.186-0.584-0.48C33.951,144.408,34.165,144.147,34.459,144.118z"/>
			</g>
		</g>
	</g>
	<g>
		<g>
			<g>
				<path class="st21" d="M42.214,153.448c0.212,0.202,0.221,0.538,0.019,0.75l-0.924,0.972c-0.202,0.212-0.538,0.221-0.75,0.019
					c-0.212-0.202-0.221-0.538-0.019-0.75l0.924-0.972C41.666,153.255,42.001,153.246,42.214,153.448z"/>
			</g>
			<g>
				<path class="st21" d="M44.738,150.792c0.212,0.202,0.221,0.538,0.019,0.75l-0.924,0.972c-0.202,0.212-0.538,0.221-0.75,0.019
					c-0.212-0.202-0.221-0.538-0.019-0.75l0.924-0.972C44.19,150.599,44.525,150.59,44.738,150.792z"/>
			</g>
		</g>
		<g>
			<g>
				<path class="st21" d="M41.2,150.882l0.972,0.924c0.212,0.202,0.221,0.538,0.019,0.75c-0.202,0.212-0.538,0.221-0.75,0.019
					l-0.972-0.923c-0.212-0.202-0.221-0.538-0.019-0.75C40.652,150.689,40.988,150.68,41.2,150.882z"/>
			</g>
			<g>
				<path class="st21" d="M43.856,153.406l0.972,0.923c0.212,0.202,0.221,0.538,0.019,0.75c-0.202,0.212-0.538,0.221-0.75,0.019
					l-0.972-0.924c-0.212-0.202-0.221-0.538-0.019-0.75S43.644,153.204,43.856,153.406z"/>
			</g>
		</g>
	</g>
	<g>
		<g>
			<g>
				<path class="st21" d="M24.719,133.134c0.212,0.202,0.221,0.538,0.019,0.75l-0.924,0.972c-0.202,0.212-0.538,0.221-0.75,0.019
					c-0.212-0.202-0.221-0.538-0.019-0.75l0.924-0.972C24.171,132.941,24.506,132.932,24.719,133.134z"/>
			</g>
			<g>
				<path class="st21" d="M27.243,130.478c0.212,0.202,0.221,0.538,0.019,0.75l-0.924,0.972c-0.202,0.212-0.538,0.221-0.75,0.019
					s-0.221-0.538-0.019-0.75l0.924-0.972C26.695,130.285,27.031,130.276,27.243,130.478z"/>
			</g>
		</g>
		<g>
			<g>
				<path class="st21" d="M23.705,130.568l0.972,0.924c0.212,0.202,0.221,0.538,0.019,0.75c-0.202,0.212-0.538,0.221-0.75,0.019
					l-0.972-0.924c-0.212-0.202-0.221-0.538-0.019-0.75C23.157,130.375,23.493,130.366,23.705,130.568z"/>
			</g>
			<g>
				<path class="st21" d="M26.361,133.092l0.972,0.924c0.212,0.202,0.221,0.538,0.019,0.75s-0.538,0.221-0.75,0.019l-0.972-0.924
					c-0.212-0.202-0.221-0.538-0.019-0.75C25.813,132.899,26.149,132.89,26.361,133.092z"/>
			</g>
		</g>
	</g>
	<g>
		<g>
			<g>
				<path class="st21" d="M156.765,97.957c-0.254,0-0.46-0.206-0.46-0.46l0-1.162c0-0.254,0.206-0.46,0.46-0.46
					s0.46,0.206,0.46,0.46l0,1.162C157.224,97.751,157.019,97.957,156.765,97.957z"/>
			</g>
			<g>
				<path class="st21" d="M156.765,101.133c-0.254,0-0.46-0.206-0.46-0.46l0-1.162c0-0.254,0.206-0.46,0.46-0.46
					c0.254,0,0.46,0.206,0.46,0.46l0,1.162C157.224,100.927,157.018,101.133,156.765,101.133z"/>
			</g>
		</g>
		<g>
			<g>
				<path class="st21" d="M158.934,98.964l-1.162,0c-0.254,0-0.46-0.206-0.46-0.46c0-0.254,0.206-0.46,0.46-0.46l1.162,0
					c0.254,0,0.46,0.206,0.46,0.46C159.393,98.758,159.188,98.964,158.934,98.964z"/>
			</g>
			<g>
				<path class="st21" d="M155.758,98.964l-1.162,0c-0.254,0-0.46-0.206-0.46-0.46c0-0.254,0.206-0.46,0.46-0.46l1.162,0
					c0.254,0,0.46,0.206,0.46,0.46C156.217,98.758,156.012,98.964,155.758,98.964z"/>
			</g>
		</g>
	</g>
	<circle class="st21" cx="46.648" cy="29.369" r="2.818"/>
	<circle class="st21" cx="25.154" cy="147.357" r="2.594"/>
	<path class="st21" d="M168,97.047c1.202,0.271,1.957,1.466,1.686,2.668c-0.271,1.202-1.466,1.957-2.668,1.686
		c-1.202-0.271-1.957-1.466-1.686-2.668C165.603,97.531,166.797,96.776,168,97.047z"/>
	<circle class="st21" cx="43.319" cy="145.184" r="2.594"/>
	<circle class="st21" cx="150.286" cy="96.062" r="2.232"/>
	
		<ellipse transform="matrix(0.3978 -0.9175 0.9175 0.3978 2.7002 52.4451)" class="st21" cx="41.299" cy="24.166" rx="1.5" ry="1.5"/>
	<path class="st21" d="M28.391,32.867c-0.052-0.319,0.164-0.619,0.482-0.672c0.319-0.052,0.619,0.164,0.672,0.482
		s-0.164,0.619-0.482,0.672C28.744,33.402,28.443,33.186,28.391,32.867z"/>
	<path class="st21" d="M162.398,101.582c-0.646-0.113-1.078-0.729-0.965-1.375s0.729-1.078,1.375-0.965
		c0.646,0.113,1.079,0.729,0.965,1.375C163.66,101.263,163.045,101.695,162.398,101.582z"/>
	<circle class="st21" cx="152.095" cy="84.927" r="1.188"/>
	
		<ellipse transform="matrix(0.2328 -0.9725 0.9725 0.2328 -114.9598 132.5579)" class="st21" cx="26.535" cy="139.14" rx="1.381" ry="1.381"/>
	<circle class="st21" cx="50.272" cy="149.14" r="1.381"/>
	<circle class="st21" cx="35.393" cy="150.521" r="1.381"/>
	<circle class="st21" cx="61.462" cy="32.134" r="1.5"/>
</g>
</svg>
