<svg id="epp_logo" xmlns="http://www.w3.org/2000/svg" viewBox="0 0 198 184"><path d="M.4 115.101h56.832v14.864H21.384v10.929h33.225v13.989H21.384v13.552h36.722v15.301H.4v-68.635zM69.91 115.101h35.411c7.869 0 13.552 1.749 17.487 5.683 3.935 3.935 5.683 8.743 5.683 15.738 0 6.995-2.186 12.241-6.12 16.175-4.372 3.935-10.492 5.683-19.235 5.683H91.331v25.356H69.91v-68.635zm21.421 29.291h5.246c3.935 0 6.995-.874 8.743-2.186 1.749-1.311 2.623-3.06 2.623-5.683 0-2.186-.874-3.935-2.186-5.683-1.312-1.311-3.935-2.186-8.306-2.186h-6.12v15.738zM139.419 115.101h35.411c7.869 0 13.552 1.749 17.487 5.683 3.935 3.497 5.683 8.743 5.683 15.738 0 6.995-2.186 12.241-6.12 16.175-4.372 3.935-10.492 5.683-19.235 5.683h-11.804v25.356H139.42c-.001.001-.001-68.635-.001-68.635zm21.422 29.291h5.246c3.935 0 6.995-.874 8.743-2.186 1.749-1.311 2.623-3.06 2.623-5.683 0-2.186-.874-3.935-2.186-5.683-1.312-1.749-3.935-2.186-8.306-2.186h-6.12v15.738zM77.342 91.931L48.926 34.225c3.06 10.492 5.246 20.547 6.12 30.165.874 9.618.874 17.487-.437 23.607-1.312 6.12-3.497 10.929-6.12 13.989-2.623 3.497-5.683 5.683-9.181 6.995-2.186.874-3.935.874-5.246.874-1.312-.437-2.186-1.312-3.06-2.186-.437-.874-.437-2.186 0-3.06s1.312-1.749 2.623-2.186c.874-.437 2.186-.874 3.935-.874 1.749-.437 3.06-.437 3.935-.874 1.749-.874 3.497-2.186 4.809-3.935 2.186-3.06 3.497-7.432 4.372-13.552.874-6.12.437-13.989-.874-23.607-1.312-9.618-3.497-18.798-6.558-27.542-8.306 3.497-14.427 8.306-17.924 14.427-2.623 4.809-3.497 9.618-1.749 13.552.874 1.749 2.623 3.497 5.683 5.246 1.749.874 2.623 1.749 3.06 2.623.437.874.437 1.749 0 2.623-.437.874-.874 1.312-1.749 1.749-1.312.437-3.06.437-4.809-.874-2.186-1.749-4.372-3.935-5.246-6.995-1.749-4.372-1.749-8.743-.874-13.989 1.312-4.809 3.935-9.618 8.306-13.552s9.618-7.432 16.175-10.055c3.497-1.312 6.558-3.06 8.306-4.372 1.312 3.497 1.749 5.246 2.186 5.246 0 .437.437.874.874 2.186L76.03 70.51c2.623-19.235 6.12-35.411 10.492-48.963C89.582 11.929 93.08 4.935 96.577.563c.437 7.869 1.312 18.361 3.06 31.039l3.935 29.29c.437 1.749.437 3.935 1.312 6.995l.874 6.558c3.06-.437 5.683-1.312 8.306-2.186 1.749-.874 3.935-1.749 5.683-3.06l.437 3.497c-1.749 1.312-3.06 1.749-4.372 2.186l-6.558 2.186c-2.623.437-4.372 1.312-6.558 2.186a35.11 35.11 0 0 0-6.12 3.935c0-6.12-.874-13.989-2.186-24.044l-2.623-18.798c-1.312-7.869-1.749-13.552-1.312-17.05-1.749 4.372-3.497 12.678-6.12 24.044-2.186 9.181-3.935 20.547-5.246 34.099l-1.747 10.491zM120.621 26.356c-1.749.874-3.935 3.06-6.12 6.995l-2.623-1.749 3.06-4.372c3.06-4.372 4.809-7.432 6.12-8.743.874-.874 1.312-1.312 2.186-1.749.874-.437 1.749 0 2.623.437 4.809 2.623 10.055 6.995 14.864 13.115 5.246 6.12 8.743 12.241 11.366 18.798.437.874.874 2.186 1.311 3.935 1.749-13.989.874-24.481-1.749-31.039-.437-1.312-1.749-3.06-3.06-5.246-1.749-2.186-2.623-3.935-3.06-5.246-.437-.874-.437-2.186 0-3.06.437-.874 1.311-1.749 2.186-2.186a6.07 6.07 0 0 1 3.935 0c1.311.874 2.186 1.749 3.06 3.935 1.749 4.809 3.06 10.929 3.935 19.235.874 7.869.437 17.05-.874 27.104-1.312 10.055-3.06 17.924-5.246 23.17-2.186 5.683-4.809 10.055-7.869 13.115s-6.12 5.246-9.181 6.558c-2.623.874-4.372 1.312-6.12.874-1.749-.437-2.623-1.312-3.06-2.623-.437-1.312-.437-2.186.437-3.497.437-1.312 1.749-2.186 3.497-2.623 1.311-.437 3.06-.874 5.246-1.312 2.623-.437 4.372-.874 5.246-1.312 2.186-.874 4.372-2.623 6.12-5.683 2.186-3.935 3.935-8.306 4.372-12.678.437-4.372 0-8.306-1.312-12.241-2.186-5.246-5.246-10.929-9.618-17.487-4.372-6.558-8.743-11.366-13.115-13.989-3.059-.873-4.808-1.31-6.557-.436"/></svg>