<svg id="Layer_1" xmlns="http://www.w3.org/2000/svg" viewBox="0 0 57 60"><style>.st0{fill:#e9eaeb}.st1{fill:#fff}.st3,.st4,.st6{fill:none;stroke:#2a5082;stroke-width:2;stroke-miterlimit:10}.st4,.st6{fill:#fff}.st6{fill:none;stroke:#bcc0c4}</style><circle class="st0" cx="28.5" cy="24.519" r="23.538"/><path class="st1" d="M3 24.519v.981l8.827 5.885L28.5 22.558l-6.865-7.846zM54 24.519v.981l-8.827 5.885L28.5 22.558l6.865-7.846z"/><path fill="#a3d4ff" d="M11.827 40.212v9.334l16.673 9.3 17.654-9.3v-9.334z"/><path class="st0" d="M28.5 40.212l16.673-8.827L28.5 22.558l-16.673 8.827z"/><path class="st3" d="M46.154 40.212v9.335L28.5 58.846l-16.673-9.299v-9.335"/><path class="st4" d="M3 38.25l16.673 8.827 8.827-5.885v-.98l-16.673-8.827L3 37.269zM54 38.25l-16.673 8.827-8.827-5.885v-.98l16.673-8.827L54 37.269z"/><path class="st3" d="M37.325 27.23l7.848 4.155L54 25.5v-.981l-18.635-9.807M28.5 41.192v17.654"/><path fill="#a3d4ff" stroke="#2a5082" stroke-width="2" stroke-miterlimit="10" d="M32.423 21.577V7.846h-7.846v13.731h-5.885L28.5 32.365l9.808-10.788z"/><path class="st6" d="M16.731 7.846v4.904M16.731 5.885V3.923M16.731 1.962V0"/><g><path class="st6" d="M41.25 3.923v8.827M41.25 1.962V0"/></g><path class="st3" d="M19.675 27.23l-7.848 4.155L3 25.5v-.981l18.635-9.807"/></svg>