<svg id="Layer_1" xmlns="http://www.w3.org/2000/svg" viewBox="0 0 57 60"><style>.st2{fill:none;stroke:#2a5082;stroke-width:2;stroke-miterlimit:10}</style><circle cx="28.077" cy="28.932" r="23.5" fill="#e9eaeb"/><path d="M30.796 9.58c-1.984.295-4.501 1.653-6.295 3.446-3.341 3.341-4.49 8.071-3.355 12.33L16 30.446v3.871l-.531.683h-3.871L10 36.898v3.871L9.017 41H5.146L1.92 44.677 5.791 49h6.452l15.218-15.463c1.889 1.022 4.044 1.413 6.073 1.413C40.625 34.951 47.062 26 45 18c-2.063-8-9.25-9.687-14.204-8.42z" fill="#fff"/><path class="st2" d="M30.796 9.58a12.722 12.722 0 0 0-6.295 3.446c-3.341 3.341-4.49 8.071-3.355 12.33L16 30.446v3.871l-.531.683h-3.871L10 36.898v3.871L9.017 41H5.146L1.92 44.677 5.791 49h6.452l15.218-15.463c1.889 1.022 3.981 1.412 6.073 1.413M25.146 30.446L10.307 45.285"/><path d="M36 59h5.745L46 53.986V32.464c6-1.571 9.278-6.452 9.278-12.238 0-7.055-5.642-12.774-12.697-12.774-7.055 0-12.871 5.719-12.871 12.774 0 4.725 3.29 8.841 6.29 11.051V39l2 2v2l-2 2.861v1.737L38 50v2l-2 2v5z" fill="#a3d4ff" stroke="#2a5082" stroke-width="2" stroke-miterlimit="10"/><path class="st2" d="M42 36v17M42 34v-2M22 12c0-6.075 4.925-11 11-11s11 4.925 11 11a10.96 10.96 0 0 1-1 4.589"/><path d="M43.003 20.003a3.994 3.994 0 1 1 0-7.988 3.994 3.994 0 0 1 0 7.988z" fill="#fff" stroke="#2a5082" stroke-width="2" stroke-miterlimit="10"/></svg>