<svg id="Layer_1" xmlns="http://www.w3.org/2000/svg" viewBox="0 0 200 200"><style>.st1{fill:#fff}</style><path d="M181.906 101.789c0 11.716.094 23.433-.033 35.147-.083 7.658-2.945 14.053-9.483 18.467-1.939 1.309-3.87 2.646-5.893 3.816a20610.351 20610.351 0 0 1-52.555 30.315c-4.4 2.529-8.865 5.201-14.073 5.321-3.1.072-6.321-.507-9.305-1.404-2.761-.83-5.361-2.33-7.89-3.781a12315.348 12315.348 0 0 1-53.221-30.721c-2.466-1.432-4.828-3.079-7.092-4.818-5.139-3.949-7.51-9.4-7.755-15.73-.272-7.019-.338-14.049-.362-21.074-.05-15.035-.068-30.071.024-45.106.022-3.627.294-7.287.863-10.867.907-5.708 4.122-10.136 8.92-13.185 6.472-4.112 13.11-7.97 19.741-11.826 13.041-7.585 26.063-15.208 39.233-22.563C86.832 11.656 91 9.908 95.22 8.854c4.971-1.242 9.821.376 14.235 2.82 7.564 4.19 15.062 8.501 22.561 12.809 11.671 6.706 23.326 13.44 34.971 20.193 1.798 1.043 3.522 2.217 5.248 3.379 6.592 4.437 9.561 10.839 9.64 18.587.12 11.715.031 23.432.031 35.147z" fill="#71586a"/><path class="st1" d="M125.594 110.034c-4.422 0-8.844-.009-13.266.005-1.293.004-2.405-.241-2.466-1.807-.068-1.731 1.128-1.945 2.49-1.944 8.779.009 17.558.007 26.337.001 1.331-.001 2.605.137 2.575 1.87-.029 1.67-1.239 1.89-2.599 1.883-4.357-.021-8.714-.008-13.071-.008zM128.117 84.63c-3.443 0-6.887-.03-10.33.014-1.409.018-2.618-.401-2.692-1.878-.079-1.572 1.183-1.95 2.565-1.948 7.017.01 14.033.002 21.05.007 1.319.001 2.609.184 2.552 1.908-.054 1.635-1.265 1.905-2.62 1.901-3.509-.012-7.017-.004-10.525-.004zM133.582 135.503c-1.882 0-3.764.002-5.646-.001-1.197-.002-2.046-.452-2.053-1.783-.008-1.395.837-1.946 2.13-1.948 3.699-.005 7.398-.002 11.098-.002 1.3 0 2.147.578 2.16 1.938.014 1.465-1.001 1.804-2.236 1.803-1.817-.002-3.634-.001-5.451-.001-.002-.002-.002-.004-.002-.006zM97.45 69.91c4.591 2.078 8.127 5.027 10.607 8.848 2.479 3.82 3.72 8.345 3.72 13.573 0 5.163-1.241 9.669-3.72 13.523-2.48 3.854-6.017 6.804-10.607 8.848-4.592 2.045-10.004 3.066-16.237 3.066H67.037v19.404H50.749V66.793h30.464c6.233 0 11.645 1.04 16.237 3.117zm-5.981 31.419c2.546-2.111 3.82-5.11 3.82-8.999 0-3.954-1.274-6.988-3.82-9.099-2.549-2.111-6.269-3.167-11.161-3.167H67.037v24.432h13.271c4.892 0 8.612-1.056 11.161-3.167z"/></svg>