<svg id="Layer_1" xmlns="http://www.w3.org/2000/svg" viewBox="0 0 57 60"><style>.st1,.st4{fill:#fff;stroke:#2a5082;stroke-width:2;stroke-miterlimit:10}.st4{fill:none}</style><ellipse transform="rotate(-78.042 28.877 30.374)" cx="28.876" cy="30.374" rx="25.821" ry="25.821" fill="#e9eaeb"/><path class="st1" d="M39.638 22.958l-.202-.213c-1.036-1.091-1.148-2.682-.249-3.536l3.826-3.612c1.385-1.315 3.365-1.497 4.401-.406l.202.213c1.036 1.091.751 3.059-.634 4.374l-3.826 3.612c-.899.854-2.482.659-3.518-.432zM20.233 27.746l-4.968-1.835-6.622 20.985c.382.303.756.613 1.112.929a23.925 23.925 0 0 1 3.446 3.758l6.418.923c1.414-1.538 2.478-2.536 3.699-3.689 9.441.692 13.801-6.275 14.743-7.377.943-1.1-17.828-13.694-17.828-13.694z"/><path d="M39.707 42.364H21.734a3 3 0 0 1-3-3V4.79a3 3 0 0 1 3-3h17.973a3 3 0 0 1 3 3v34.574a3 3 0 0 1-3 3z" fill="#e9eaeb" stroke="#2a5082" stroke-width="2" stroke-miterlimit="10"/><path class="st1" d="M18.731 6.401h23.975v28.586H18.731zM42.186 41.54l-.202-.175c-1.039-.897-1.426-2.167-.86-2.824l2.414-2.777c.872-1.011 2.436-1.104 3.476-.208l.202.175c1.039.897 1.176 2.457.304 3.468l-2.414 2.777c-.567.657-1.881.461-2.92-.436z"/><path d="M19.239 27.568c.953-2.869 1.345-4.918 1.663-8.292.183-1.94-.64-3.604-1.498-4.806-.877-1.229-3.019-.947-3.449.429-1.894 6.06-2.249 7.71-3.42 10.753-1.31 3.404-.56 8.181-1.21 9.578-.13.279-4.53 5.944-5.747 7.662 1.296.654 4.011 1.853 5.078 2.8a24.84 24.84 0 0 1 3.579 3.903l1.004.08 5.846-6.025c2.515-7.182.429-13.208-1.846-16.082z" fill="#fff"/><path class="st4" d="M21.086 43.651c2.514-7.183.428-13.209-1.847-16.083.953-2.869 1.345-4.918 1.663-8.292.183-1.94-.64-3.604-1.498-4.806-.877-1.229-3.019-.947-3.449.429-1.894 6.061-2.249 7.71-3.42 10.753-1.31 3.404-.559 8.181-1.21 9.578-.13.279-4.53 5.944-5.747 7.662 1.296.654 4.011 1.853 5.078 2.8a24.84 24.84 0 0 1 3.579 3.903l1.004.08"/><path fill="#a3d4ff" stroke="#2a5082" stroke-width="1.99998" stroke-miterlimit="10" d="M2.302 44.013l5.007-5.002 14.187 14.2-5.007 5.001z"/><path class="st1" d="M42.204 35.071l-.206-.178c-1.057-.912-1.451-2.205-.875-2.873l2.456-2.825c.887-1.029 2.479-1.124 3.536-.211l.206.178c1.057.912 1.197 2.5.309 3.529l-2.456 2.825c-.576.667-1.912.467-2.97-.445z"/><path class="st1" d="M42.203 28.792l-.206-.178c-1.057-.912-1.451-2.205-.875-2.873l2.456-2.825c.887-1.029 2.479-1.124 3.536-.211l.206.178c1.057.912 1.196 2.5.309 3.529l-2.456 2.825c-.576.667-1.912.467-2.97-.445z"/><path class="st4" d="M27.953 38.675h5.532M26.492 17.466a4.61 4.61 0 0 1 8.453-.003"/><path class="st4" d="M23.818 14.699a8.29 8.29 0 0 1 6.901-3.688 8.292 8.292 0 0 1 6.901 3.687M27.953 26.687c0 1.019.826 1.844 1.844 1.844h2.084c.886 0 1.605-.718 1.605-1.604v-.005c0-.691-.442-1.304-1.097-1.522l-3.338-1.113a1.605 1.605 0 0 1-1.097-1.522v-.005c0-.886.718-1.604 1.605-1.604h2.084c1.019 0 1.844.826 1.844 1.844M30.719 21.155v-2.767M30.719 28.532v2.766"/></svg>