<svg id="Layer_1" xmlns="http://www.w3.org/2000/svg" viewBox="0 0 57 60"><style>.st1,.st2{fill:none;stroke:#2a5082;stroke-width:2;stroke-miterlimit:10}.st2{fill:#a3d4ff}</style><ellipse transform="rotate(-45.001 32.733 26.267)" cx="32.733" cy="26.267" rx="24.267" ry="24.267" fill="#e9eaeb"/><path class="st1" d="M31.659 9.834l-3.96-3.96-2.862 2.862c-1.279-.82-2.371-1.426-4.238-1.761V2.933H15v4.042c-1.867.335-2.959.941-4.238 1.761L7.9 5.874l-3.96 3.96 2.862 2.862c-.82 1.279-1.426 2.371-1.761 4.238H1v5.6h4.042c.335 1.867.941 2.959 1.761 4.238l-2.862 2.862 3.96 3.96 2.862-2.862c1.279.82 2.371 1.426 4.238 1.761v4.042h2.8"/><path class="st1" d="M17.8 28.133a8.4 8.4 0 0 1 0-16.8h1.867M17.8 23.467a3.733 3.733 0 0 1 0-7.467"/><path class="st2" d="M47.667 19.733v-2.8a3.733 3.733 0 0 0-3.733-3.733h-19.6a3.733 3.733 0 0 0-3.733 3.733v2.8h27.066zM20.6 50.533v3.733c0 1.783 1.951 3.734 3.733 3.733h19.6c1.783 0 3.734-1.951 3.733-3.733v-3.733H20.6z"/><path fill="#fff" stroke="#2a5082" stroke-width="2" stroke-miterlimit="10" d="M20.6 34.667V19.733h27.067v30.8H20.6V34.667"/><path class="st1" d="M30.867 54.267H37.4M44.867 24.4H42.68a8.813 8.813 0 0 1-.852 2.061l2.205 2.205-3.3 3.3-2.205-2.205a8.813 8.813 0 0 1-2.061.852v3.121H31.8v-3.121a8.813 8.813 0 0 1-2.061-.852l-2.205 2.205-3.3-3.3 2.205-2.205a8.813 8.813 0 0 1-.852-2.061H23.4M30.919 21.6a3.267 3.267 0 0 0 6.534 0"/></svg>