<svg id="Layer_1" xmlns="http://www.w3.org/2000/svg" viewBox="0 0 57 60"><style>.st0{fill:#e9eaeb}.st1,.st2{fill:none;stroke:#2a5082;stroke-width:2;stroke-miterlimit:10}.st2{stroke:#bcc0c4}</style><path class="st0" d="M10.91 22.096h35.057C43.88 13.308 35.987 6.77 26.561 6.77c-11.019 0-19.952 8.933-19.952 19.952 0 4.673 1.611 8.967 4.301 12.367V22.096z"/><path class="st0" d="M15.141 27.328H13.36c-1.516 0-2.672-1.163-2.672-2.672v26.719c0 1.509 1.156 2.672 2.672 2.672h1.781V27.328z"/><path class="st1" d="M45.422 15.75v-5.344M48.791 16.301l2.318-4.014M51.407 18.917l4.014-2.318M52.547 22.875H57"/><path class="st2" d="M11.564 9.077a3.124 3.124 0 1 1-6.249 0 3.124 3.124 0 0 1 6.249 0zM20.484 11.297v5.344M23.156 13.969h-5.343M2.672 23.766v5.343M5.344 26.438H0M2.672 23.766v5.343M5.344 26.438H0"/><path class="st0" d="M10.688 24.656c0 1.509 1.153 2.672 2.669 2.672h33.846v-5.344H13.357c-1.516 0-2.669 1.163-2.669 2.672z"/><path class="st1" d="M47.203 27.328v-5.344H13.357c-1.516 0-2.669 1.163-2.669 2.672"/><path fill="#a3d4ff" d="M42.83 27.328L30.288 14.783 17.693 27.328"/><path class="st1" d="M42.83 27.328L30.288 14.783 17.693 27.328"/><path class="st0" d="M36.516 27.328l-4.338-4.361c-1.26 1.26-2.519 1.261-3.779.001l-4.358 4.36"/><path class="st1" d="M36.516 27.328l-4.338-4.361c-1.26 1.26-2.519 1.261-3.779.001l-4.358 4.36"/><path class="st1" d="M51.656 54.047H13.359c-1.516 0-2.672-1.163-2.672-2.672V24.656c0 1.509 1.156 2.672 2.672 2.672h38.297v26.719z"/><path d="M52.547 45.141H39.633a4.898 4.898 0 0 1 0-9.796h12.914a1.78 1.78 0 0 1 1.781 1.781v6.234c0 .983-.797 1.781-1.781 1.781z" fill="#a3d4ff" stroke="#2a5082" stroke-width="2" stroke-miterlimit="10"/><path d="M38.297 40.242a2.227 2.227 0 1 1 4.454 0 2.227 2.227 0 0 1-4.454 0z" fill="#fff" stroke="#2a5082" stroke-width="2" stroke-miterlimit="10"/></svg>